<svg id="icons" xmlns="http://www.w3.org/2000/svg" viewBox="0 0 90.04 101.63">
  <defs>
    <style>
      .cls-1, .cls-5 {
        fill: #fff;
      }

      .cls-2, .cls-3 {
        fill: #00aeef;
      }

      .cls-3, .cls-4, .cls-6 {
        stroke: #00aeef;
      }

      .cls-3, .cls-4, .cls-5, .cls-6 {
        stroke-linecap: round;
        stroke-width: 1.5px;
      }

      .cls-3, .cls-4, .cls-5 {
        stroke-linejoin: round;
      }

      .cls-4, .cls-6 {
        fill: none;
      }

      .cls-5 {
        stroke: #fff;
      }

      .cls-6 {
        stroke-miterlimit: 10;
      }
    </style>
  </defs>
  <title>avatar-08</title>
  <path class="cls-1" d="M1011.84,187.09l37.75,21.79a8.08,8.08,0,0,0,7.27,0l37.75-21.79a8.07,8.07,0,0,0,3.63-6.3V137.21a8.06,8.06,0,0,0-3.63-6.3l-37.75-21.79a8,8,0,0,0-7.27,0l-37.75,21.79a8.06,8.06,0,0,0-3.64,6.3v43.59A8.07,8.07,0,0,0,1011.84,187.09Z" transform="translate(-1008.21 -108.25)"/>
  <path class="cls-2" d="M1032.8,175.55s-4.66.59-4.66-1.84-2.05-5.13,4.66-5.13h27.54s5.44,1.17,6.34,3.19,2.6,3.59-4.16,3.59S1032.8,175.55,1032.8,175.55Z" transform="translate(-1008.21 -108.25)"/>
  <path class="cls-2" d="M1020.22,139.83a2.39,2.39,0,1,1-3.6-.09" transform="translate(-1008.21 -108.25)"/>
  <circle class="cls-3" cx="62.82" cy="26.96" r="1.84"/>
  <path class="cls-4" d="M1065.75,134.51a3.5,3.5,0,0,1,6.89,0" transform="translate(-1008.21 -108.25)"/>
  <polyline class="cls-4" points="68.2 36.3 64.22 40.27 60.24 36.3"/>
  <polyline class="cls-4" points="57.77 36.3 53.8 40.27 49.81 36.3"/>
  <polyline class="cls-4" points="47.07 36.3 43.09 40.27 39.11 36.3"/>
  <polyline class="cls-4" points="37.46 36.3 33.48 40.27 29.5 36.3"/>
  <polyline class="cls-4" points="27.89 36.3 23.91 40.27 19.93 36.3"/>
  <polyline class="cls-5" points="21.87 67.11 25.18 63.8 28.5 67.11"/>
  <polyline class="cls-5" points="31.4 67.11 34.72 63.8 38.04 67.11"/>
  <polyline class="cls-5" points="40.94 67.11 44.26 63.8 47.57 67.11"/>
  <polyline class="cls-5" points="50.48 67.11 53.8 63.8 57.11 67.11"/>
  <polyline class="cls-4" points="59.35 66.65 63.78 62.22 68.2 66.65"/>
  <path class="cls-4" d="M1022,125.91h37.33c17.14,0,18.86-.75,18.86,7.48v11.1h-50v31.06h50v9.78c0,3.32,1,6.19-12.85,6.19-22.85,0-34.72,1.87-39,2.72" transform="translate(-1008.21 -108.25)"/>
  <circle class="cls-4" cx="57.54" cy="50.88" r="7.19"/>
  <path class="cls-4" d="M1065.35,162.87a3.34,3.34,0,0,1-3.34-3.34" transform="translate(-1008.21 -108.25)"/>
  <path class="cls-4" d="M1097,177.21a14.93,14.93,0,1,1,0-29.85" transform="translate(-1008.21 -108.25)"/>
  <path class="cls-4" d="M1087.09,158.41a11.1,11.1,0,0,1,7.32-6.46" transform="translate(-1008.21 -108.25)"/>
  <circle class="cls-4" cx="38.04" cy="48.3" r="4.56"/>
  <path class="cls-4" d="M1022.94,143.25a4.56,4.56,0,1,1-7.94-3.06c2.3,0,5,.14,6.88.14A4.54,4.54,0,0,1,1022.94,143.25Z" transform="translate(-1008.21 -108.25)"/>
  <line class="cls-6" x1="5.62" y1="27.7" x2="14.74" y2="27.7"/>
  <path class="cls-4" d="M1028.14,168.58h30.55c5.46,0,9.08,2.46,9.08,6.79" transform="translate(-1008.21 -108.25)"/>
  <path class="cls-1" d="M1053.23,110.38a5.44,5.44,0,0,1,2.63.6l37.75,21.79a6.11,6.11,0,0,1,2.63,4.56v43.59a6.12,6.12,0,0,1-2.63,4.56l-37.75,21.79a6.12,6.12,0,0,1-5.27,0l-37.75-21.79a6.12,6.12,0,0,1-2.64-4.57V137.34a6.11,6.11,0,0,1,2.64-4.56l37.75-21.8a5.45,5.45,0,0,1,2.63-.6m0-2a7.42,7.42,0,0,0-3.64.87L1011.84,131a8.06,8.06,0,0,0-3.64,6.3v43.59a8.07,8.07,0,0,0,3.64,6.3L1049.59,209a8.08,8.08,0,0,0,7.27,0l37.75-21.79a8.07,8.07,0,0,0,3.63-6.3V137.34a8.06,8.06,0,0,0-3.63-6.3l-37.75-21.79a7.41,7.41,0,0,0-3.63-.87h0Z" transform="translate(-1008.21 -108.25)"/>
</svg>
