<svg id="icons" xmlns="http://www.w3.org/2000/svg" viewBox="0 0 90.11 102.42">
  <defs>
    <style>
      .cls-1 {
        fill: #fff;
      }

      .cls-2, .cls-4 {
        fill: #00aeef;
      }

      .cls-2, .cls-3, .cls-5, .cls-6 {
        stroke: #00aeef;
        stroke-linecap: round;
        stroke-miterlimit: 10;
      }

      .cls-2, .cls-5 {
        stroke-width: 1.5px;
      }

      .cls-3, .cls-5, .cls-6 {
        fill: none;
      }

      .cls-3 {
        stroke-width: 1.57px;
      }

      .cls-6 {
        stroke-width: 2px;
        stroke-dasharray: 2.05 5.12;
      }
    </style>
  </defs>
  <title>avatar-25</title>
  <path class="cls-1" d="M1065.84,667.1l37.75,21.79a8.08,8.08,0,0,0,7.27,0l37.75-21.79a8.07,8.07,0,0,0,3.63-6.3V617.22a8.06,8.06,0,0,0-3.63-6.3l-37.75-21.79a8,8,0,0,0-7.27,0l-37.75,21.79a8.06,8.06,0,0,0-3.64,6.3V660.8A8.07,8.07,0,0,0,1065.84,667.1Z" transform="translate(-1062.2 -587.34)"/>
  <path class="cls-2" d="M1108.11,604.25c7.59,0,14.07-2.77,16.57-6.65l-13.53-7.81a6.72,6.72,0,0,0-6.08,0l-13.53,7.81C1094,601.48,1100.52,604.25,1108.11,604.25Z" transform="translate(-1062.2 -587.34)"/>
  <path class="cls-3" d="M1120.58,676.74l-5.71-3.29a1.22,1.22,0,0,0-1.1,0l-5.71,3.29-5.71-3.29a1.22,1.22,0,0,0-1.1,0l-5.71,3.29" transform="translate(-1062.2 -587.34)"/>
  <path class="cls-4" d="M1101.51,653.75a6.56,6.56,0,1,1,13.12,0c0,3.62-4.25,10.39-6.56,10.39S1101.51,657.37,1101.51,653.75Z" transform="translate(-1062.2 -587.34)"/>
  <g>
    <path class="cls-5" d="M1151.56,644.7c-2.14,2.51-15.81,17.88-30.87,17.88V681" transform="translate(-1062.2 -587.34)"/>
    <path class="cls-5" d="M1095.45,681V662.57c-15.13,0-28.87-15.52-30.9-17.91" transform="translate(-1062.2 -587.34)"/>
  </g>
  <path class="cls-5" d="M1148.55,653.74c-5.83,5.22-14.6,12-24.76,12.84v7.84" transform="translate(-1062.2 -587.34)"/>
  <path class="cls-5" d="M1067.71,653.74c5.83,5.22,14.6,12,24.76,12.84v5.83" transform="translate(-1062.2 -587.34)"/>
  <circle class="cls-4" cx="66.87" cy="40.17" r="6.56"/>
  <circle class="cls-4" cx="24.87" cy="40.17" r="6.56"/>
  <circle class="cls-5" cx="24.87" cy="40.17" r="12.3"/>
  <circle class="cls-6" cx="24.87" cy="40.17" r="17.11"/>
  <circle class="cls-6" cx="66.87" cy="40.17" r="17.11"/>
  <path class="cls-4" d="M1129.07,615.88a0.69,0.69,0,0,1,.19,0l9.76,5.63a0.73,0.73,0,0,1,.2.34v11.27a0.73,0.73,0,0,1-.19.34l-9.76,5.63a0.6,0.6,0,0,1-.2,0,0.76,0.76,0,0,1-.19,0l-9.76-5.63a0.73,0.73,0,0,1-.2-0.34V621.88a0.73,0.73,0,0,1,.19-0.34l9.76-5.64a0.59,0.59,0,0,1,.2,0m0-1.5a1.92,1.92,0,0,0-.94.22l-9.77,5.64a2.09,2.09,0,0,0-.94,1.63v11.28a2.09,2.09,0,0,0,.94,1.63l9.77,5.64a2.09,2.09,0,0,0,1.88,0l9.77-5.64a2.09,2.09,0,0,0,.94-1.63V621.87a2.09,2.09,0,0,0-.94-1.63L1130,614.6a1.92,1.92,0,0,0-.94-0.22h0Z" transform="translate(-1062.2 -587.34)"/>
  <path class="cls-3" d="M1120.58,673.32l-5.71-3.29a1.22,1.22,0,0,0-1.1,0l-5.71,3.29-5.71-3.29a1.22,1.22,0,0,0-1.1,0l-5.71,3.29" transform="translate(-1062.2 -587.34)"/>
  <ellipse class="cls-1" cx="69.62" cy="37.8" rx="1.63" ry="1.86"/>
  <ellipse class="cls-1" cx="28.05" cy="37.8" rx="1.63" ry="1.86"/>
  <line class="cls-5" x1="64.85" y1="78.77" x2="64.85" y2="83.11"/>
  <line class="cls-5" x1="27.07" y1="78.9" x2="27.07" y2="83.24"/>
  <line class="cls-5" x1="23.74" y1="77.91" x2="23.74" y2="81.26"/>
  <line class="cls-5" x1="67.9" y1="77.99" x2="67.9" y2="80.52"/>
  <path class="cls-1" d="M1107.22,589.34a5.44,5.44,0,0,1,2.64.6l37.75,21.79a6.11,6.11,0,0,1,2.63,4.56v43.59a6.12,6.12,0,0,1-2.63,4.56l-37.75,21.79a6.12,6.12,0,0,1-5.27,0l-37.75-21.79a6.12,6.12,0,0,1-2.64-4.57V616.3a6.11,6.11,0,0,1,2.64-4.56l37.75-21.8a5.45,5.45,0,0,1,2.63-.6m0-2a7.42,7.42,0,0,0-3.64.87L1065.84,610a8.06,8.06,0,0,0-3.64,6.3v43.59a8.07,8.07,0,0,0,3.64,6.3L1103.58,688a8.08,8.08,0,0,0,7.27,0l37.75-21.79a8.07,8.07,0,0,0,3.63-6.3V616.3a8.06,8.06,0,0,0-3.63-6.3l-37.75-21.79a7.41,7.41,0,0,0-3.64-.87h0Z" transform="translate(-1062.2 -587.34)"/>
</svg>
