<svg id="icons" xmlns="http://www.w3.org/2000/svg" viewBox="0 0 90.04 101.5">
  <defs>
    <style>
      .cls-1, .cls-7 {
        fill: #fff;
      }

      .cls-2, .cls-3, .cls-4, .cls-5 {
        fill: none;
      }

      .cls-2, .cls-3, .cls-4, .cls-5, .cls-6, .cls-7 {
        stroke: #00aeef;
        stroke-width: 1.5px;
      }

      .cls-2, .cls-4, .cls-6 {
        stroke-linejoin: round;
      }

      .cls-3, .cls-5, .cls-7 {
        stroke-miterlimit: 10;
      }

      .cls-4, .cls-5, .cls-6 {
        stroke-linecap: round;
      }

      .cls-6 {
        fill: #00a651;
      }

      .cls-8 {
        fill: #00aeef;
      }
    </style>
  </defs>
  <title>avatar-11</title>
  <path class="cls-1" d="M1119.82,187.09l37.75,21.79a8.08,8.08,0,0,0,7.27,0l37.75-21.79a8.07,8.07,0,0,0,3.63-6.3V137.21a8.06,8.06,0,0,0-3.63-6.3l-37.75-21.79a8,8,0,0,0-7.27,0l-37.75,21.79a8.06,8.06,0,0,0-3.64,6.3v43.59A8.07,8.07,0,0,0,1119.82,187.09Z" transform="translate(-1116.18 -108.25)"/>
  <g>
    <path class="cls-2" d="M1144,183.93V151.21a17,17,0,1,1,34,0v32.72h-34Z" transform="translate(-1116.18 -108.25)"/>
    <path class="cls-3" d="M1177.33,147.33a4.92,4.92,0,1,1-8.25-3.62c1.69,0,5.23.14,6.81,0.14A4.9,4.9,0,0,1,1177.33,147.33Z" transform="translate(-1116.18 -108.25)"/>
    <path class="cls-3" d="M1168.16,150.4a4.92,4.92,0,0,1,8.43-.12" transform="translate(-1116.18 -108.25)"/>
    <path class="cls-3" d="M1145.11,150.4a4.92,4.92,0,0,1,8.43-.12" transform="translate(-1116.18 -108.25)"/>
    <path class="cls-3" d="M1154.48,147.33a4.92,4.92,0,1,1-8.63-3.22c1.8-.54,3.08-1,5.17-1.48A4.92,4.92,0,0,1,1154.48,147.33Z" transform="translate(-1116.18 -108.25)"/>
    <line class="cls-4" x1="28.46" y1="51.58" x2="61.34" y2="51.58"/>
    <polyline class="cls-4" points="31.9 51.08 34.98 48.01 38.05 51.08"/>
    <polyline class="cls-4" points="51.98 51.08 55.05 48.01 58.12 51.08"/>
    <polyline class="cls-4" points="41.83 51.08 44.9 48.01 47.98 51.08"/>
    <line class="cls-5" x1="34.27" y1="75.69" x2="34.27" y2="84.59"/>
    <line class="cls-5" x1="56.56" y1="75.69" x2="56.56" y2="84.59"/>
    <line class="cls-5" x1="27.84" y1="56.89" x2="61.34" y2="56.89"/>
    <line class="cls-5" x1="62.22" y1="67.28" x2="67.39" y2="62.12"/>
    <line class="cls-5" x1="27.35" y1="67.28" x2="22.18" y2="62.12"/>
    <circle class="cls-6" cx="42.32" cy="43.66" r="0.67"/>
    <circle class="cls-6" cx="47.33" cy="43.66" r="0.67"/>
    <polygon class="cls-4" points="55.78 69.63 48.31 67.73 48.31 64.05 55.78 62.16 55.78 69.63"/>
    <polygon class="cls-4" points="34.6 69.63 42.08 67.73 42.08 64.05 34.6 62.16 34.6 69.63"/>
    <polyline class="cls-4" points="29.83 35.57 41.77 32.2 41.77 29.7"/>
    <circle class="cls-7" cx="45.17" cy="66.24" r="3.7"/>
    <path class="cls-8" d="M1171.23,151.91s-3.92-2.1-1-3.46,7.61,1.24,5.13,2.35S1175.18,153.32,1171.23,151.91Z" transform="translate(-1116.18 -108.25)"/>
    <path class="cls-8" d="M1147.93,152s-3.92-2.1-1-3.46,7.61,1.24,5.13,2.35S1151.87,153.44,1147.93,152Z" transform="translate(-1116.18 -108.25)"/>
    <polyline class="cls-4" points="76.64 32.18 69.46 42.16 79.03 40.93 72.71 50.83"/>
    <polyline class="cls-4" points="13.54 39.45 18.24 45.98 11.97 45.18 16.11 51.66"/>
    <line class="cls-4" x1="59.92" y1="35.16" x2="48" y2="35.16"/>
    <line class="cls-4" x1="33.38" y1="25.98" x2="56.68" y2="25.98"/>
    <polygon class="cls-4" points="52.39 15.22 45.2 17.63 38 15.22 38 25.82 52.39 25.82 52.39 15.22"/>
    <line class="cls-4" x1="38" y1="22.89" x2="52.39" y2="22.89"/>
  </g>
</svg>
