<?xml version="1.0" encoding="iso-8859-1"?>
<!-- Generator: Adobe Illustrator 18.1.1, SVG Export Plug-In . SVG Version: 6.00 Build 0)  -->
<svg version="1.1" id="Layer_1" xmlns="http://www.w3.org/2000/svg" xmlns:xlink="http://www.w3.org/1999/xlink" x="0px" y="0px"
	 viewBox="0 0 63.6 63.6" style="enable-background:new 0 0 63.6 63.6;" xml:space="preserve">
<g>
	<path style="fill:#2DB34A;" d="M43.018,52.573c0.789,2.576,1.437,5.341,1.97,8.161c2.351-1.073,4.547-2.423,6.548-4.01
		c-0.704-0.137-1.436-0.425-2.153-0.963C47.105,54.052,44.752,52.929,43.018,52.573z"/>
	<path style="fill:#2DB34A;" d="M19.424,54.087c-3.696-0.776-10.719-2.853-13.154-7.722C3.108,40.042,9.399,38,9.399,38
		s3.875-1.032,6.112,2.094c2.342,3.273,5.192,5.513,6.797,5.537c0.105,0.002,0.192,0.044,0.266,0.116
		c1.026-1.973,2.199-3.661,3.542-4.948c-5.403-2.127-9.232-7.381-9.232-13.539c0-8.04,6.518-14.558,14.558-14.558
		C39.482,12.702,46,19.22,46,27.26c0,6.158-3.83,11.411-9.232,13.539c0.9,0.862,1.724,1.903,2.479,3.091
		c1.44-0.252,12.178-1.928,17.058,3.105c0.92,0.949,1.48,1.855,1.782,2.701C61.564,44.598,63.6,38.437,63.6,31.8
		C63.6,14.237,49.363,0,31.8,0C14.237,0,0,14.237,0,31.8c0,12.599,7.328,23.485,17.953,28.633
		C18.37,58.261,18.857,56.126,19.424,54.087z"/>
	<path style="fill:#FFFFFF;" d="M39.246,43.89c1.522,2.396,2.763,5.384,3.773,8.683c1.733,0.356,4.086,1.478,6.365,3.188
		c0.717,0.538,1.449,0.826,2.153,0.963c2.52-1.998,4.733-4.366,6.549-7.028c-0.302-0.846-0.862-1.752-1.782-2.701
		C51.424,41.963,40.685,43.639,39.246,43.89z M53.913,50.575l-1.236,1.797c-0.349,0.507-0.911,0.779-1.483,0.779
		c-0.351,0-0.706-0.103-1.016-0.316c-0.818-0.562-1.025-1.681-0.463-2.499l1.236-1.797c0.562-0.818,1.681-1.022,2.499-0.463
		C54.268,48.638,54.475,49.757,53.913,50.575z"/>
	<path style="fill:#FFFFFF;" d="M22.308,45.631c-1.605-0.024-4.455-2.263-6.797-5.537C13.274,36.967,9.399,38,9.399,38
		s-6.291,2.042-3.13,8.365c2.435,4.869,9.458,6.946,13.154,7.722c0.854-3.071,1.892-5.92,3.15-8.34
		C22.5,45.675,22.413,45.633,22.308,45.631z M13.94,44.762l-2.022,2.022c-0.351,0.351-0.811,0.527-1.271,0.527
		s-0.92-0.176-1.271-0.527c-0.702-0.702-0.702-1.839,0-2.541l2.022-2.022c0.702-0.702,1.839-0.702,2.541,0
		C14.642,42.923,14.642,44.06,13.94,44.762z"/>
	<path style="fill:#FFFFFF;" d="M41.234,52.532c-1.538,0.461-2.153-8.612-2.153-8.612s0.06-0.011,0.165-0.03
		c-0.755-1.188-1.579-2.229-2.479-3.091c-1.651,0.65-3.444,1.019-5.326,1.019s-3.674-0.369-5.326-1.019
		c-1.342,1.286-2.515,2.974-3.542,4.948c1.067,1.026-0.81,8.745-0.81,8.745s-0.929-0.108-2.34-0.404
		c-0.567,2.039-1.054,4.174-1.471,6.346c3.742,1.813,7.893,2.914,12.278,3.127c0.223-0.069,0.454-0.116,0.7-0.116
		c0.291,0,0.566,0.06,0.824,0.155c0.015,0,0.031,0.001,0.046,0.001c4.706,0,9.17-1.031,13.189-2.865
		c-0.533-2.82-1.181-5.585-1.97-8.161C42.303,52.427,41.683,52.397,41.234,52.532z M30.93,59.108c-1.318,0-2.386-1.068-2.386-2.386
		s1.068-2.386,2.386-2.386s2.386,1.068,2.386,2.386S32.248,59.108,30.93,59.108z"/>
	<path style="fill:#FFFFFF;" d="M41.234,52.532c0.449-0.135,1.07-0.105,1.785,0.042c-1.01-3.299-2.25-6.287-3.773-8.683
		c-0.105,0.018-0.165,0.03-0.165,0.03S39.696,52.993,41.234,52.532z"/>
	<path style="fill:#FFFFFF;" d="M22.574,45.747c-1.259,2.42-2.296,5.269-3.15,8.34c1.411,0.296,2.34,0.404,2.34,0.404
		S23.641,46.773,22.574,45.747z"/>
	<path style="fill:#FFFFFF;" d="M28.979,39.768h4.926h1.635c0.424,0.306,0.832,0.653,1.227,1.031C42.17,38.672,46,33.419,46,27.26
		c0-8.04-6.518-14.558-14.558-14.558c-8.04,0-14.558,6.518-14.558,14.558c0,6.158,3.83,11.411,9.232,13.539
		c0.395-0.378,0.803-0.725,1.227-1.031H28.979z M24.007,33.159c-0.333-0.666-0.063-1.475,0.604-1.808l13.832,0.596
		c0.621,0.41,0.793,1.246,0.383,1.867c-0.091,0.14-2.245,3.316-6.952,3.316c-0.132,0-0.267-0.003-0.404-0.008
		C27.343,36.968,24.87,34.891,24.007,33.159z"/>
	<path style="fill:#FFFFFF;" d="M36.767,40.799c-0.395-0.378-0.803-0.725-1.227-1.031h-1.635h-4.926h-1.635
		c-0.424,0.306-0.832,0.653-1.227,1.031c1.651,0.65,3.444,1.019,5.326,1.019S35.116,41.449,36.767,40.799z"/>
	<path style="fill:#FFFFFF;" d="M30.23,63.56c0.505,0.025,1.013,0.038,1.523,0.039c-0.258-0.095-0.533-0.155-0.824-0.155
		C30.685,63.444,30.453,63.492,30.23,63.56z"/>
	<circle style="fill:#999999;" cx="30.93" cy="56.722" r="2.386"/>
	<path style="fill:#999999;" d="M31.873,37.131c4.707,0,6.861-3.177,6.952-3.316c0.411-0.621,0.239-1.458-0.383-1.867l-13.832-0.596
		c-0.667,0.333-0.937,1.142-0.604,1.808c0.863,1.731,3.336,3.808,7.463,3.964C31.606,37.128,31.741,37.131,31.873,37.131z"/>
	<path style="fill:#999999;" d="M53.45,48.075c-0.818-0.559-1.938-0.355-2.499,0.463l-1.236,1.797
		c-0.562,0.818-0.354,1.937,0.463,2.499c0.311,0.213,0.665,0.316,1.016,0.316c0.572,0,1.134-0.272,1.483-0.779l1.236-1.797
		C54.475,49.757,54.268,48.638,53.45,48.075z"/>
	<path style="fill:#999999;" d="M11.398,42.221l-2.022,2.022c-0.702,0.702-0.702,1.839,0,2.541c0.351,0.351,0.811,0.527,1.271,0.527
		s0.92-0.176,1.271-0.527l2.022-2.022c0.702-0.702,0.702-1.839,0-2.541C13.238,41.519,12.101,41.519,11.398,42.221z"/>
</g>
<g>
	<circle style="fill:#A7A9AC;" cx="25.999" cy="24.682" r="2.478"/>
</g>
<g>
	<path style="fill:#A7A9AC;" d="M38.477,26.182c0,1.368-4.955,1.208-4.955,0c0-1.368,1.109-2.478,2.478-2.478
		C37.367,23.705,38.477,24.814,38.477,26.182z"/>
</g>
<path style="fill:#A7A9AC;" d="M35.885,41.565l-2.125,6.75l-2.125-4.5l-2.375,4l-2-6.25C27.26,41.565,31.26,43.94,35.885,41.565z"/>
</svg>
