<?xml version="1.0" encoding="iso-8859-1"?>
<!-- Generator: Adobe Illustrator 18.1.1, SVG Export Plug-In . SVG Version: 6.00 Build 0)  -->
<svg version="1.1" id="Layer_1" xmlns="http://www.w3.org/2000/svg" xmlns:xlink="http://www.w3.org/1999/xlink" x="0px" y="0px"
	 viewBox="0 0 63.6 63.6" style="enable-background:new 0 0 63.6 63.6;" xml:space="preserve">
<g>
	<path style="fill:#2DB34A;" d="M19.424,54.087c-3.696-0.776-10.72-2.853-13.154-7.722C3.108,40.042,9.399,38,9.399,38
		s3.875-1.032,6.112,2.094c2.342,3.273,5.192,5.513,6.797,5.537c0.105,0.002,0.192,0.044,0.266,0.116
		c1.026-1.973,2.199-3.661,3.542-4.948c-5.403-2.127-9.232-7.381-9.232-13.539c0-8.04,6.518-14.558,14.558-14.558S46,19.22,46,27.26
		c0,6.158-3.83,11.411-9.232,13.539c0.9,0.862,1.724,1.903,2.479,3.091c1.44-0.252,12.178-1.928,17.058,3.105
		c0.92,0.949,1.48,1.855,1.782,2.701C61.564,44.598,63.6,38.437,63.6,31.8C63.6,14.237,49.363,0,31.8,0C14.237,0,0,14.237,0,31.8
		c0,12.599,7.328,23.485,17.953,28.633C18.37,58.261,18.857,56.126,19.424,54.087z"/>
	<path style="fill:#2DB34A;" d="M43.019,52.573c0.789,2.576,1.437,5.341,1.97,8.161c2.351-1.073,4.547-2.423,6.548-4.01
		c-0.704-0.137-1.436-0.425-2.153-0.963C47.105,54.052,44.752,52.929,43.019,52.573z"/>
	<path style="fill:#FFFFFF;" d="M39.246,43.89c1.522,2.396,2.763,5.384,3.773,8.683c1.733,0.356,4.086,1.478,6.365,3.188
		c0.717,0.538,1.449,0.826,2.153,0.963c2.52-1.998,4.733-4.366,6.549-7.028c-0.302-0.846-0.862-1.752-1.782-2.701
		C51.424,41.963,40.685,43.639,39.246,43.89z M53.913,50.575l-1.236,1.797c-0.349,0.507-0.911,0.779-1.483,0.779
		c-0.351,0-0.706-0.103-1.016-0.316c-0.818-0.562-1.025-1.681-0.463-2.499l1.236-1.797c0.562-0.818,1.681-1.022,2.499-0.463
		C54.268,48.638,54.475,49.757,53.913,50.575z"/>
	<path style="fill:#FFFFFF;" d="M22.308,45.631c-1.605-0.024-4.455-2.263-6.797-5.537C13.274,36.967,9.399,38,9.399,38
		s-6.291,2.042-3.13,8.365c2.435,4.869,9.458,6.946,13.154,7.722c0.854-3.071,1.892-5.92,3.15-8.34
		C22.5,45.675,22.413,45.633,22.308,45.631z M13.94,44.762l-2.022,2.022c-0.351,0.351-0.811,0.527-1.271,0.527
		s-0.92-0.176-1.271-0.527c-0.702-0.702-0.702-1.839,0-2.541l2.022-2.022c0.702-0.702,1.839-0.702,2.541,0
		C14.642,42.923,14.642,44.06,13.94,44.762z"/>
	<path style="fill:#FFFFFF;" d="M41.234,52.532c-1.538,0.461-2.153-8.612-2.153-8.612s0.06-0.011,0.165-0.03
		c-0.755-1.188-1.579-2.229-2.479-3.091c-1.651,0.65-3.444,1.019-5.326,1.019s-3.674-0.369-5.326-1.019
		c-1.342,1.286-2.515,2.974-3.542,4.948c1.067,1.026-0.81,8.745-0.81,8.745s-0.929-0.108-2.34-0.404
		c-0.567,2.039-1.054,4.174-1.471,6.346c3.742,1.813,7.893,2.914,12.278,3.127c0.223-0.069,0.454-0.116,0.7-0.116
		c0.291,0,0.566,0.06,0.824,0.155c0.015,0,0.031,0.001,0.046,0.001c4.706,0,9.17-1.031,13.188-2.865
		c-0.533-2.82-1.181-5.585-1.97-8.161C42.303,52.427,41.683,52.397,41.234,52.532z M30.93,59.108c-1.318,0-2.386-1.068-2.386-2.386
		s1.068-2.386,2.386-2.386s2.386,1.068,2.386,2.386S32.248,59.108,30.93,59.108z M34.68,48.246
		c-0.149,0.283-0.437,0.464-0.755,0.479l-4.836,0.209c-0.313,0.012-0.61-0.137-0.785-0.397c-0.175-0.259-0.203-0.591-0.071-0.875
		c0.418-0.913,0.856-1.893,1.194-2.672c-0.236-0.274-0.391-0.606-0.421-0.98c-0.084-1.069,0.851-1.986,2.13-2.087
		c1.279-0.101,2.347,0.658,2.431,1.727c0.037,0.471-0.132,0.908-0.432,1.263l1.513,2.44C34.815,47.623,34.829,47.965,34.68,48.246z"
		/>
	<path style="fill:#FFFFFF;" d="M41.234,52.532c0.449-0.135,1.07-0.105,1.785,0.042c-1.01-3.299-2.25-6.287-3.773-8.683
		c-0.105,0.018-0.165,0.03-0.165,0.03S39.696,52.993,41.234,52.532z"/>
	<path style="fill:#FFFFFF;" d="M22.574,45.747c-1.259,2.42-2.296,5.269-3.15,8.34c1.411,0.296,2.34,0.404,2.34,0.404
		S23.641,46.773,22.574,45.747z"/>
	<path style="fill:#FFFFFF;" d="M28.979,39.768h4.926h1.635c0.424,0.306,0.832,0.653,1.227,1.031C42.17,38.672,46,33.419,46,27.26
		c0-8.04-6.518-14.558-14.558-14.558S16.884,19.22,16.884,27.26c0,6.158,3.83,11.411,9.232,13.539
		c0.395-0.378,0.803-0.725,1.227-1.031H28.979z M36.422,24.955c1.368,0,2.478,1.109,2.478,2.478h-4.955
		C33.945,26.064,35.054,24.955,36.422,24.955z M26.934,24.955c1.368,0,2.478,1.109,2.478,2.478h-4.955
		C24.457,26.064,25.566,24.955,26.934,24.955z"/>
	<path style="fill:#FFFFFF;" d="M36.767,40.799c-0.395-0.378-0.803-0.725-1.227-1.031h-1.635h-4.926h-1.635
		c-0.424,0.306-0.832,0.653-1.227,1.031c1.651,0.65,3.444,1.019,5.326,1.019S35.116,41.449,36.767,40.799z"/>
	<path style="fill:#999999;" d="M36.422,24.955c-1.368,0-2.478,1.109-2.478,2.478H38.9C38.9,26.064,37.791,24.955,36.422,24.955z"/>
	<path style="fill:#999999;" d="M26.934,24.955c-1.368,0-2.478,1.109-2.478,2.478h4.955C29.412,26.064,28.303,24.955,26.934,24.955z
		"/>
	<path style="fill:#FFFFFF;" d="M30.23,63.56c0.505,0.025,1.013,0.038,1.523,0.039c-0.258-0.095-0.533-0.155-0.824-0.155
		C30.685,63.444,30.453,63.492,30.23,63.56z"/>
	<circle style="fill:#999999;" cx="30.93" cy="56.722" r="2.386"/>
	<path style="fill:#999999;" d="M33.135,44.912c-0.382,0.452-0.982,0.769-1.698,0.826c-0.833,0.066-1.57-0.237-2.011-0.749
		c-0.338,0.779-0.776,1.759-1.194,2.672c-0.132,0.283-0.104,0.616,0.071,0.875c0.175,0.261,0.472,0.41,0.785,0.397l4.836-0.209
		c0.318-0.015,0.606-0.196,0.755-0.479c0.149-0.281,0.136-0.623-0.031-0.894L33.135,44.912z"/>
	<path style="fill:#999999;" d="M53.45,48.075c-0.818-0.559-1.938-0.355-2.499,0.463l-1.236,1.797
		c-0.562,0.818-0.355,1.937,0.463,2.499c0.311,0.213,0.665,0.316,1.016,0.316c0.572,0,1.134-0.272,1.483-0.779l1.236-1.797
		C54.475,49.757,54.268,48.638,53.45,48.075z"/>
	<path style="fill:#999999;" d="M11.399,42.221l-2.022,2.022c-0.702,0.702-0.702,1.839,0,2.541c0.351,0.351,0.811,0.527,1.271,0.527
		s0.92-0.176,1.271-0.527l2.022-2.022c0.702-0.702,0.702-1.839,0-2.541C13.238,41.519,12.101,41.519,11.399,42.221z"/>
	<path style="fill:#999999;" d="M32.399,43.726l0.736,1.187c0.3-0.355,0.469-0.792,0.432-1.263
		c-0.084-1.069-1.152-1.828-2.431-1.727c-1.279,0.101-2.214,1.018-2.13,2.087c0.03,0.374,0.184,0.706,0.421,0.98
		c0.229-0.527,0.412-0.965,0.508-1.219C29.667,43.184,32.399,43.726,32.399,43.726z"/>
	<path style="fill:#999999;" d="M31.438,45.738c0.716-0.057,1.316-0.374,1.698-0.826l-0.736-1.187c0,0-2.732-0.541-2.464,0.045
		c-0.096,0.254-0.28,0.692-0.508,1.219C29.868,45.501,30.605,45.804,31.438,45.738z"/>
</g>
<path style="fill:#A7A9AC;" d="M36.066,50.659"/>
<g>
	<g>
		<path style="fill:#A7A9AC;" d="M23.732,33.763c4.548,4.205,11.012,4.904,15.141-0.209c0.996-1.233-1.087-2.311-1.945-1.248
			c-3.148,3.898-7.742,3.314-11.192,0.124C24.766,31.534,22.626,32.741,23.732,33.763L23.732,33.763z"/>
	</g>
</g>
</svg>
