<?xml version="1.0" encoding="iso-8859-1"?>
<!-- Generator: Adobe Illustrator 18.1.1, SVG Export Plug-In . SVG Version: 6.00 Build 0)  -->
<svg version="1.1" id="Layer_1" xmlns="http://www.w3.org/2000/svg" xmlns:xlink="http://www.w3.org/1999/xlink" x="0px" y="0px"
	 viewBox="0 0 63.6 63.6" style="enable-background:new 0 0 63.6 63.6;" xml:space="preserve">
<g>
	<path style="fill:#2DB34A;" d="M14.216,55.761c-0.717,0.538-1.449,0.826-2.153,0.963c2.002,1.587,4.198,2.937,6.548,4.01
		c0.533-2.82,1.181-5.585,1.97-8.161C18.848,52.929,16.495,54.052,14.216,55.761z"/>
	<path style="fill:#2DB34A;" d="M31.8,0C14.237,0,0,14.237,0,31.8c0,6.637,2.036,12.798,5.514,17.896
		c0.302-0.846,0.862-1.752,1.782-2.701c4.881-5.033,15.619-3.357,17.058-3.105c0.755-1.188,1.579-2.229,2.479-3.091
		C21.43,38.672,17.6,33.419,17.6,27.26c0-8.04,6.518-14.558,14.558-14.558S46.716,19.22,46.716,27.26
		c0,6.158-3.83,11.411-9.232,13.539c1.342,1.286,2.515,2.974,3.542,4.948c0.074-0.071,0.161-0.114,0.266-0.115
		c1.605-0.024,4.455-2.263,6.797-5.537C50.326,36.967,54.201,38,54.201,38s6.291,2.042,3.13,8.365
		c-2.435,4.869-9.458,6.946-13.154,7.722c0.567,2.039,1.054,4.174,1.471,6.346C56.272,55.285,63.6,44.399,63.6,31.8
		C63.6,14.237,49.363,0,31.8,0z"/>
	<path style="fill:#FFFFFF;" d="M20.581,52.573c1.01-3.299,2.25-6.287,3.773-8.683c-1.44-0.252-12.178-1.928-17.058,3.105
		c-0.92,0.949-1.48,1.855-1.782,2.701c1.816,2.662,4.029,5.03,6.549,7.028c0.704-0.137,1.436-0.425,2.153-0.963
		C16.495,54.052,18.848,52.929,20.581,52.573z M13.422,52.835c-0.311,0.213-0.665,0.316-1.016,0.316
		c-0.572,0-1.134-0.272-1.483-0.779l-1.236-1.797c-0.562-0.818-0.354-1.937,0.463-2.499c0.818-0.559,1.938-0.355,2.499,0.463
		l1.236,1.797C14.447,51.154,14.24,52.273,13.422,52.835z"/>
	<path style="fill:#FFFFFF;" d="M57.33,46.365c3.161-6.323-3.13-8.365-3.13-8.365s-3.875-1.032-6.112,2.094
		c-2.342,3.273-5.192,5.513-6.797,5.537c-0.105,0.002-0.192,0.044-0.266,0.115c1.259,2.42,2.296,5.269,3.15,8.341
		C47.872,53.311,54.895,51.234,57.33,46.365z M49.66,42.221c0.702-0.702,1.839-0.702,2.541,0l2.022,2.022
		c0.702,0.702,0.702,1.839,0,2.541c-0.351,0.351-0.811,0.527-1.271,0.527s-0.92-0.176-1.271-0.527l-2.022-2.022
		C48.958,44.06,48.958,42.923,49.66,42.221z"/>
	<path style="fill:#FFFFFF;" d="M41.836,54.491c0,0-1.877-7.719-0.81-8.745c-1.026-1.973-2.199-3.661-3.542-4.948
		c-1.651,0.65-3.444,1.019-5.326,1.019s-3.674-0.369-5.326-1.019c-0.9,0.862-1.724,1.903-2.479,3.091
		c0.105,0.018,0.165,0.03,0.165,0.03s-0.615,9.073-2.153,8.612c-0.449-0.135-1.07-0.105-1.785,0.042
		c-0.789,2.576-1.437,5.341-1.97,8.161C22.63,62.569,27.094,63.6,31.8,63.6c0.015,0,0.031-0.001,0.046-0.001
		c0.258-0.095,0.533-0.155,0.824-0.155c0.245,0,0.477,0.048,0.7,0.116c4.384-0.213,8.535-1.314,12.278-3.127
		c-0.417-2.172-0.904-4.307-1.471-6.346C42.765,54.384,41.836,54.491,41.836,54.491z M32.67,59.108
		c-1.318,0-2.386-1.068-2.386-2.386s1.068-2.386,2.386-2.386s2.386,1.068,2.386,2.386S33.987,59.108,32.67,59.108z M36.973,50.906
		c-0.269,0.171-0.611,0.184-0.893,0.039l-2.552-1.317c-0.331,0.327-0.752,0.53-1.225,0.53c-0.452,0-0.858-0.186-1.182-0.489
		l-2.294,1.34c-0.139,0.082-0.297,0.123-0.453,0.123c-0.146,0-0.291-0.035-0.425-0.106c-0.276-0.147-0.455-0.427-0.472-0.74
		l-0.26-4.405c-0.019-0.312,0.126-0.61,0.383-0.789c0.255-0.178,0.584-0.21,0.872-0.089c0.896,0.389,1.863,0.799,2.611,1.106
		c0.33-0.325,0.75-0.526,1.22-0.526c0.375,0,0.718,0.128,1.01,0.342c0.75-0.398,1.693-0.912,2.57-1.401
		c0.272-0.154,0.605-0.152,0.878,0.002c0.274,0.154,0.446,0.438,0.458,0.751l0.172,4.837C37.401,50.434,37.243,50.735,36.973,50.906
		z"/>
	<path style="fill:#FFFFFF;" d="M22.366,52.532c1.538,0.461,2.153-8.612,2.153-8.612s-0.06-0.011-0.165-0.03
		c-1.522,2.396-2.763,5.384-3.773,8.683C21.297,52.427,21.917,52.397,22.366,52.532z"/>
	<path style="fill:#FFFFFF;" d="M41.836,54.491c0,0,0.929-0.108,2.34-0.404c-0.854-3.071-1.892-5.92-3.15-8.341
		C39.959,46.772,41.836,54.491,41.836,54.491z"/>
	<path style="fill:#FFFFFF;" d="M29.695,39.768h4.926h1.635c0.424,0.306,0.832,0.653,1.227,1.031
		c5.403-2.127,9.232-7.381,9.232-13.539c0-8.04-6.518-14.558-14.558-14.558S17.6,19.22,17.6,27.26c0,6.158,3.83,11.411,9.232,13.539
		c0.395-0.378,0.803-0.725,1.227-1.031H29.695z M40.393,25.932c0,1.368-4.955,1.368-4.955,0S40.393,24.564,40.393,25.932z
		 M23.45,25.932c0-1.368,4.955-1.368,4.955,0S23.45,27.301,23.45,25.932z"/>
	<path style="fill:#FFFFFF;" d="M37.484,40.799c-0.395-0.378-0.803-0.725-1.227-1.031h-1.635h-4.926H28.06
		c-0.424,0.306-0.832,0.653-1.227,1.031c1.651,0.65,3.444,1.019,5.326,1.019S35.833,41.449,37.484,40.799z"/>
	<path style="fill:#999999;" d="M28.405,25.932c0-1.368-4.955-1.368-4.955,0S28.405,27.301,28.405,25.932z"/>
	<path style="fill:#999999;" d="M40.393,25.932c0-1.368-4.955-1.368-4.955,0S40.393,27.301,40.393,25.932z"/>
	<path style="fill:#FFFFFF;" d="M31.846,63.599c0.511-0.001,1.019-0.014,1.523-0.039c-0.223-0.069-0.454-0.116-0.7-0.116
		C32.379,63.444,32.104,63.504,31.846,63.599z"/>
	<circle style="fill:#999999;" cx="32.67" cy="56.722" r="2.386"/>
	<path style="fill:#999999;" d="M29.184,48.72l1.217-0.711c-0.002-0.047-0.011-0.091-0.011-0.138c0-0.034,0.007-0.065,0.008-0.098
		c-0.356-0.146-0.77-0.318-1.302-0.544L29.184,48.72z"/>
	<path style="fill:#999999;" d="M35.474,46.806c-0.51,0.28-0.931,0.507-1.287,0.696c0.016,0.121,0.03,0.243,0.03,0.371
		c0,0.03-0.006,0.058-0.007,0.087l1.329,0.686L35.474,46.806z"/>
	<path style="fill:#999999;" d="M30.609,48.928l-2.235,1.306l-0.259-4.405c0,0,1.328,0.576,2.467,1.047
		c0.119-0.299,0.29-0.557,0.501-0.765c-0.748-0.308-1.715-0.718-2.611-1.106c-0.288-0.121-0.618-0.09-0.872,0.089
		c-0.256,0.179-0.402,0.477-0.383,0.789l0.26,4.405c0.018,0.312,0.197,0.592,0.472,0.74c0.133,0.071,0.279,0.106,0.425,0.106
		c0.156,0,0.314-0.041,0.453-0.123l2.294-1.34C30.907,49.471,30.734,49.22,30.609,48.928z"/>
	<path style="fill:#999999;" d="M36.76,44.528c-0.272-0.154-0.605-0.155-0.878-0.002c-0.877,0.488-1.82,1.002-2.57,1.401
		c0.242,0.177,0.447,0.414,0.6,0.699c1.137-0.607,2.407-1.315,2.407-1.315l0.173,4.837l-2.47-1.274
		c-0.118,0.295-0.288,0.55-0.495,0.756l2.552,1.317c0.283,0.145,0.625,0.132,0.893-0.039c0.27-0.171,0.428-0.472,0.418-0.791
		l-0.172-4.837C37.206,44.965,37.034,44.681,36.76,44.528z"/>
	<path style="fill:#999999;" d="M35.474,46.806l0.065,1.839l-1.329-0.686c-0.01,0.33-0.076,0.637-0.187,0.914l2.47,1.274
		L36.32,45.31c0,0-1.27,0.708-2.407,1.315c0.139,0.259,0.232,0.556,0.274,0.876C34.543,47.312,34.964,47.085,35.474,46.806z"/>
	<path style="fill:#999999;" d="M29.184,48.72l-0.088-1.491c0.531,0.226,0.945,0.398,1.302,0.544
		c0.011-0.323,0.076-0.625,0.184-0.898c-1.14-0.471-2.467-1.047-2.467-1.047l0.259,4.405l2.235-1.306
		c-0.119-0.277-0.191-0.586-0.208-0.919L29.184,48.72z"/>
	<path style="fill:#999999;" d="M12.649,48.539c-0.562-0.818-1.681-1.022-2.499-0.463c-0.818,0.562-1.025,1.681-0.463,2.499
		l1.236,1.797c0.349,0.507,0.911,0.779,1.483,0.779c0.351,0,0.706-0.103,1.016-0.316c0.818-0.562,1.025-1.681,0.463-2.499
		L12.649,48.539z"/>
	<path style="fill:#999999;" d="M51.682,46.784c0.351,0.351,0.811,0.527,1.271,0.527s0.92-0.176,1.271-0.527
		c0.702-0.702,0.702-1.839,0-2.541l-2.022-2.022c-0.702-0.702-1.839-0.702-2.541,0c-0.702,0.702-0.702,1.839,0,2.541L51.682,46.784z
		"/>
	<path style="fill:#29ABE2;" d="M32.209,47.994c0.028,0.193,0.095,0.333,0.138,0.371c-0.025-0.036,0.021-0.162,0.05-0.331
		l-0.136-0.07L32.209,47.994z"/>
	<path style="fill:#29ABE2;" d="M32.249,47.457c0.014-0.005,0.031-0.011,0.048-0.018c-0.012-0.017-0.027-0.05-0.037-0.059
		C32.269,47.391,32.254,47.431,32.249,47.457z"/>
	<path style="fill:#29ABE2;" d="M32.187,47.872c0,0.051,0.016,0.078,0.022,0.122l0.052-0.03l0.136,0.07
		c0.009-0.054,0.024-0.095,0.024-0.162c0-0.225-0.068-0.359-0.123-0.433c-0.018,0.007-0.034,0.013-0.048,0.018
		C32.234,47.536,32.187,47.663,32.187,47.872z"/>
	<path style="fill:#999999;" d="M32.204,46.497c0.251-0.121,0.639-0.321,1.109-0.57c-0.292-0.214-0.635-0.342-1.01-0.342
		c-0.47,0-0.89,0.201-1.22,0.526c0.43,0.177,0.781,0.317,1.012,0.402C32.13,46.503,32.167,46.502,32.204,46.497z"/>
	<path style="fill:#999999;" d="M32.303,49.261c-0.119,0-0.231-0.033-0.337-0.085L31.12,49.67c0.324,0.303,0.73,0.489,1.182,0.489
		c0.473,0,0.895-0.203,1.225-0.53l-0.882-0.455C32.538,49.227,32.424,49.261,32.303,49.261z"/>
	<path style="fill:#999999;" d="M34.187,47.501c-0.154,0.081-0.299,0.158-0.428,0.225l0.451,0.233
		c0.001-0.03,0.007-0.057,0.007-0.087C34.217,47.745,34.203,47.622,34.187,47.501z"/>
	<path style="fill:#999999;" d="M30.401,48.01l0.236-0.138c-0.07-0.028-0.163-0.067-0.239-0.098
		c-0.001,0.033-0.008,0.065-0.008,0.098C30.39,47.919,30.399,47.963,30.401,48.01z"/>
	<path style="fill:#999999;" d="M34.023,48.873l-0.803-0.414c-0.114,0.332-0.32,0.59-0.575,0.715l0.882,0.455
		C33.736,49.423,33.905,49.169,34.023,48.873z"/>
	<path style="fill:#999999;" d="M31.392,48.471l-0.783,0.457c0.125,0.291,0.299,0.542,0.512,0.742l0.846-0.494
		C31.713,49.053,31.507,48.799,31.392,48.471z"/>
	<path style="fill:#999999;" d="M30.582,46.875c0.3,0.124,0.587,0.241,0.833,0.338c0.14-0.353,0.384-0.616,0.68-0.701
		c-0.231-0.085-0.582-0.226-1.012-0.402C30.872,46.318,30.701,46.576,30.582,46.875z"/>
	<path style="fill:#999999;" d="M32.303,46.483c0.333,0,0.626,0.223,0.811,0.562c0.245-0.126,0.516-0.268,0.799-0.419
		c-0.153-0.285-0.358-0.521-0.6-0.699c-0.47,0.249-0.858,0.45-1.109,0.57C32.237,46.492,32.269,46.483,32.303,46.483z"/>
	<path style="fill:#999999;" d="M33.318,47.872c0,0.211-0.037,0.408-0.098,0.587l0.803,0.414c0.111-0.277,0.177-0.585,0.187-0.914
		l-0.451-0.233c0.129-0.067,0.274-0.143,0.428-0.225c-0.042-0.321-0.135-0.617-0.274-0.876c-0.283,0.151-0.554,0.294-0.799,0.419
		C33.241,47.276,33.318,47.56,33.318,47.872z"/>
	<path style="fill:#999999;" d="M31.415,47.214c-0.246-0.097-0.534-0.214-0.833-0.338c-0.108,0.273-0.173,0.575-0.184,0.898
		c0.077,0.031,0.17,0.07,0.239,0.098l-0.236,0.138c0.016,0.333,0.089,0.642,0.208,0.919l0.783-0.457
		c-0.064-0.182-0.103-0.384-0.103-0.599C31.289,47.632,31.337,47.41,31.415,47.214z"/>
	<path style="fill:#999999;" d="M32.204,46.497c-0.037,0.005-0.074,0.006-0.109,0.016c0.013,0.005,0.031,0.012,0.043,0.016
		C32.156,46.521,32.184,46.506,32.204,46.497z"/>
	<path style="fill:#999999;" d="M31.966,49.176c0.106,0.051,0.218,0.085,0.337,0.085c0.121,0,0.235-0.034,0.342-0.087l-0.359-0.185
		L31.966,49.176z"/>
	<path style="fill:#999999;" d="M32.249,47.457c0.005-0.025,0.02-0.066,0.012-0.077c0.01,0.009,0.024,0.042,0.037,0.059
		c0.161-0.064,0.456-0.208,0.817-0.394c-0.185-0.339-0.478-0.562-0.811-0.562c-0.034,0-0.066,0.009-0.099,0.014
		c-0.02,0.01-0.048,0.024-0.067,0.033c-0.012-0.004-0.03-0.012-0.043-0.016c-0.295,0.085-0.54,0.348-0.68,0.701
		c0.4,0.158,0.693,0.264,0.759,0.264C32.188,47.477,32.216,47.468,32.249,47.457z"/>
	<path style="fill:#999999;" d="M32.346,48.365c-0.043-0.039-0.11-0.178-0.138-0.371l-0.817,0.477
		c0.116,0.328,0.321,0.582,0.575,0.705l0.321-0.187l0.359,0.185c0.254-0.125,0.461-0.383,0.575-0.715l-0.824-0.425
		C32.368,48.203,32.321,48.329,32.346,48.365z"/>
	<path style="fill:#999999;" d="M33.114,47.044c-0.362,0.186-0.656,0.33-0.817,0.394c0.055,0.075,0.123,0.208,0.123,0.433
		c0,0.067-0.015,0.107-0.024,0.162l0.824,0.425c0.061-0.179,0.098-0.376,0.098-0.587C33.318,47.56,33.241,47.276,33.114,47.044z"/>
	<path style="fill:#999999;" d="M32.187,47.872c0-0.209,0.047-0.335,0.062-0.415c-0.032,0.011-0.061,0.02-0.075,0.02
		c-0.066,0-0.359-0.106-0.759-0.264c-0.078,0.197-0.126,0.419-0.126,0.658c0,0.216,0.039,0.417,0.103,0.599l0.817-0.477
		C32.203,47.95,32.187,47.922,32.187,47.872z"/>
</g>
<g>
	<g>
		<path style="fill:#A7A9AC;" d="M25.229,34.251c4.621,3.295,10.662,3.54,14.92-0.395c1.158-1.07-0.959-2.16-1.945-1.248
			c-3.316,3.065-7.945,2.412-11.414-0.062C25.679,31.754,23.938,33.33,25.229,34.251L25.229,34.251z"/>
	</g>
</g>
</svg>
