<?xml version="1.0" encoding="iso-8859-1"?>
<!-- Generator: Adobe Illustrator 18.1.1, SVG Export Plug-In . SVG Version: 6.00 Build 0)  -->
<svg version="1.1" id="Layer_1" xmlns="http://www.w3.org/2000/svg" xmlns:xlink="http://www.w3.org/1999/xlink" x="0px" y="0px"
	 viewBox="0 0 63.6 63.6" style="enable-background:new 0 0 63.6 63.6;" xml:space="preserve">
<g>
	<path style="fill:#EF3F23;" d="M14.216,55.761c-0.717,0.538-1.449,0.826-2.153,0.963c2.002,1.587,4.198,2.937,6.548,4.01
		c0.533-2.82,1.181-5.585,1.97-8.161C18.848,52.929,16.495,54.052,14.216,55.761z"/>
	<path style="fill:#FFFFFF;" d="M20.581,52.573c1.01-3.299,2.25-6.287,3.773-8.683c-1.44-0.252-12.178-1.928-17.058,3.105
		c-0.92,0.949-1.48,1.855-1.782,2.701c1.816,2.662,4.029,5.03,6.549,7.028c0.704-0.137,1.436-0.425,2.153-0.963
		C16.495,54.052,18.848,52.929,20.581,52.573z M13.422,52.835c-0.311,0.213-0.665,0.316-1.016,0.316
		c-0.572,0-1.134-0.272-1.483-0.779l-1.236-1.797c-0.562-0.818-0.354-1.937,0.463-2.499c0.818-0.559,1.938-0.354,2.499,0.463
		l1.236,1.797C14.447,51.154,14.24,52.273,13.422,52.835z"/>
	<path style="fill:#FFFFFF;" d="M57.33,46.365c3.161-6.323-3.13-8.365-3.13-8.365s-3.875-1.032-6.112,2.094
		c-2.342,3.273-5.192,5.513-6.797,5.537c-0.105,0.002-0.192,0.044-0.266,0.115c1.259,2.42,2.296,5.269,3.15,8.341
		C47.872,53.311,54.895,51.234,57.33,46.365z M49.66,42.221c0.702-0.702,1.839-0.702,2.541,0l2.022,2.022
		c0.702,0.702,0.702,1.839,0,2.541c-0.351,0.351-0.811,0.526-1.271,0.526s-0.92-0.175-1.271-0.526l-2.022-2.022
		C48.958,44.06,48.958,42.923,49.66,42.221z"/>
	<path style="fill:#FFFFFF;" d="M41.836,54.491c0,0-1.877-7.719-0.81-8.745c-1.026-1.973-2.199-3.661-3.542-4.948
		c-1.651,0.65-3.444,1.019-5.326,1.019s-3.674-0.369-5.326-1.019c-0.9,0.862-1.724,1.903-2.479,3.091
		c0.105,0.018,0.165,0.03,0.165,0.03s-0.615,9.073-2.153,8.612c-0.449-0.135-1.07-0.105-1.785,0.042
		c-0.789,2.576-1.437,5.341-1.97,8.161C22.63,62.569,27.094,63.6,31.8,63.6c4.964,0,9.661-1.139,13.847-3.167
		c-0.417-2.172-0.904-4.307-1.471-6.346C42.765,54.384,41.836,54.491,41.836,54.491z M32.67,59.108
		c-1.318,0-2.386-1.068-2.386-2.386s1.068-2.386,2.386-2.386s2.386,1.068,2.386,2.386S33.987,59.108,32.67,59.108z M36.973,50.906
		c-0.269,0.171-0.611,0.184-0.893,0.039l-2.552-1.317c-0.331,0.328-0.752,0.53-1.225,0.53c-0.452,0-0.858-0.186-1.182-0.49
		l-2.294,1.34c-0.139,0.082-0.297,0.123-0.453,0.123c-0.146,0-0.291-0.035-0.425-0.106c-0.276-0.147-0.455-0.427-0.472-0.74
		l-0.26-4.405c-0.019-0.312,0.126-0.61,0.383-0.789c0.255-0.178,0.584-0.21,0.872-0.089c0.896,0.389,1.863,0.799,2.611,1.107
		c0.33-0.325,0.75-0.526,1.22-0.526c0.375,0,0.718,0.128,1.01,0.342c0.75-0.398,1.693-0.912,2.57-1.401
		c0.272-0.154,0.605-0.152,0.878,0.002c0.274,0.154,0.446,0.438,0.458,0.751l0.172,4.837C37.401,50.434,37.243,50.735,36.973,50.906
		z"/>
	<path style="fill:#FFFFFF;" d="M22.366,52.532c1.538,0.461,2.153-8.612,2.153-8.612s-0.06-0.011-0.165-0.03
		c-1.522,2.396-2.763,5.384-3.773,8.683C21.297,52.427,21.917,52.397,22.366,52.532z"/>
	<path style="fill:#FFFFFF;" d="M41.836,54.491c0,0,0.929-0.108,2.34-0.404c-0.854-3.071-1.892-5.92-3.15-8.341
		C39.959,46.772,41.836,54.491,41.836,54.491z"/>
	<path style="fill:#FFFFFF;" d="M29.695,39.768h4.926h1.635c0.424,0.306,0.832,0.653,1.227,1.031
		c5.403-2.127,9.232-7.381,9.232-13.539c0-8.04-6.518-14.558-14.558-14.558S17.6,19.22,17.6,27.26c0,6.158,3.83,11.411,9.232,13.539
		c0.395-0.378,0.803-0.725,1.227-1.031H29.695z M39.143,25.182c0,1.368-4.955,1.368-4.955,0S39.143,23.814,39.143,25.182z
		 M24.7,25.182c0-1.368,4.955-1.368,4.955,0S24.7,26.551,24.7,25.182z"/>
	<path style="fill:#FFFFFF;" d="M37.484,40.799c-0.395-0.378-0.803-0.725-1.227-1.031h-1.635h-4.926H28.06
		c-0.424,0.306-0.832,0.653-1.227,1.031c1.651,0.65,3.444,1.019,5.326,1.019S35.833,41.449,37.484,40.799z"/>
	<path style="fill:#999999;" d="M29.655,25.182c0-1.368-4.955-1.368-4.955,0S29.655,26.551,29.655,25.182z"/>
	<path style="fill:#999999;" d="M39.143,25.182c0-1.368-4.955-1.368-4.955,0S39.143,26.551,39.143,25.182z"/>
	<circle style="fill:#999999;" cx="32.67" cy="56.722" r="2.386"/>
	<circle style="fill:#999999;" cx="32.67" cy="43.847" r="2.386"/>
	<path style="fill:#999999;" d="M12.649,48.539c-0.562-0.818-1.681-1.022-2.499-0.463c-0.818,0.562-1.025,1.681-0.463,2.499
		l1.236,1.797c0.349,0.507,0.911,0.779,1.483,0.779c0.351,0,0.706-0.103,1.016-0.316c0.818-0.562,1.025-1.681,0.463-2.499
		L12.649,48.539z"/>
	<path style="fill:#999999;" d="M51.682,46.784c0.351,0.351,0.811,0.526,1.271,0.526s0.92-0.175,1.271-0.526
		c0.702-0.702,0.702-1.839,0-2.541l-2.022-2.022c-0.702-0.702-1.839-0.702-2.541,0s-0.702,1.839,0,2.541L51.682,46.784z"/>
</g>
<path style="fill:#EF3F23;" d="M31.8,0C14.237,0,0,14.237,0,31.8c0,6.637,2.036,12.798,5.514,17.896
	c0.302-0.846,0.862-1.752,1.782-2.701c4.88-5.033,15.619-3.357,17.058-3.105c0.755-1.188,1.579-2.229,2.479-3.091
	C21.43,38.672,17.6,33.419,17.6,27.26c0-8.04,6.518-14.558,14.558-14.558c4.898,0,9.221,2.427,11.86,6.135
	c-0.008,0.007-0.017,0.012-0.024,0.019c-0.812-0.678-2.021-0.581-2.711,0.225c-0.696,0.812-0.602,2.036,0.21,2.732
	c0.108,0.093,0.225,0.169,0.346,0.234c-0.372,0.095-0.721,0.299-0.99,0.613c-0.696,0.812-0.602,2.036,0.21,2.732
	c0.4,0.343,0.899,0.492,1.385,0.46c-0.44,0.789-0.281,1.804,0.432,2.414c0.781,0.669,1.936,0.601,2.643-0.126
	c-0.053,0.602,0.171,1.221,0.665,1.644c0.085,0.073,0.176,0.132,0.269,0.187c-0.937,4.956-4.381,9.021-8.969,10.828
	c1.342,1.286,2.515,2.974,3.542,4.948c0.074-0.071,0.161-0.114,0.266-0.115c1.605-0.024,4.455-2.263,6.797-5.537
	C50.326,36.967,54.201,38,54.201,38s6.291,2.042,3.13,8.365c-2.435,4.869-9.458,6.946-13.154,7.722
	c0.567,2.039,1.054,4.174,1.471,6.346C56.272,55.285,63.6,44.399,63.6,31.8C63.6,14.237,49.363,0,31.8,0z"/>
<g>
	<g>
		<path style="fill:#A7A9AC;" d="M25.239,35.726c4.749,1.045,10.17,0.734,14.285-2.034c1.35-0.908-0.308-2.432-1.486-1.64
			c-3.358,2.259-8.547,2.42-11.783,1.708C24.9,33.462,23.656,35.378,25.239,35.726L25.239,35.726z"/>
	</g>
</g>
<g>
	<g>
		<path style="fill:#A7A9AC;" d="M29.043,20.9c-1.736-0.252-3.792-0.081-5.098,1.207c-0.574,0.566,0.31,1.449,0.884,0.884
			c0.67-0.66,1.611-0.871,2.525-0.919c0.328-0.017,0.658-0.015,0.986,0.005c0.095,0.006,0.532,0.052,0.371,0.029
			C29.497,22.22,29.837,21.016,29.043,20.9L29.043,20.9z"/>
	</g>
</g>
<g>
	<g>
		<path style="fill:#A7A9AC;" d="M35.302,22.106c-0.177,0.026,0.213-0.018,0.305-0.025c0.35-0.024,0.702-0.028,1.052-0.009
			c0.914,0.049,1.855,0.259,2.525,0.919c0.574,0.565,1.458-0.318,0.884-0.884c-1.307-1.288-3.362-1.459-5.098-1.207
			C34.177,21.016,34.514,22.22,35.302,22.106L35.302,22.106z"/>
	</g>
</g>
<path style="fill:none;stroke:#A7A9AC;stroke-linecap:round;stroke-linejoin:round;stroke-miterlimit:10;" d="M28.926,49.011
	c0,0-0.625-4.375,3-4.75"/>
<path style="fill:none;stroke:#A7A9AC;stroke-linecap:round;stroke-linejoin:round;stroke-miterlimit:10;" d="M36.51,48.761
	c0,0,0.625-4.375-3-4.75"/>
</svg>
