<svg id="icons" xmlns="http://www.w3.org/2000/svg" viewBox="0 0 90.1 101.64">
  <defs>
    <style>
      .cls-1 {
        fill: #fff;
      }

      .cls-2, .cls-3, .cls-4 {
        fill: #00aeef;
      }

      .cls-3 {
        opacity: 0.15;
      }

      .cls-4 {
        opacity: 0.5;
      }
    </style>
  </defs>
  <title>avatar-16</title>
  <path class="cls-1" d="M795.5,379.1l37.75,21.79a8.08,8.08,0,0,0,7.27,0l37.75-21.79a8.07,8.07,0,0,0,3.63-6.3V329.22a8.06,8.06,0,0,0-3.63-6.3l-37.75-21.79a8,8,0,0,0-7.27,0L795.5,322.92a8.06,8.06,0,0,0-3.64,6.3V372.8A8.07,8.07,0,0,0,795.5,379.1Z" transform="translate(-791.87 -300.26)"/>
  <polygon class="cls-2" points="39.2 15.48 39.2 50.8 49.65 50.8 49.65 26.3 62.53 26.3 62.53 15.48 39.2 15.48"/>
  <polygon class="cls-3" points="13.6 53.2 1.26 53.2 1.26 75.26 9.81 81.65 13.57 83.76 13.57 81.65 13.6 81.65 13.6 53.2"/>
  <polygon class="cls-4" points="37.56 77.72 37.56 75.88 37.56 65.81 27.66 65.81 15.31 65.81 15.31 75.88 27.66 75.88 27.66 87.96 28.38 87.96 37.56 87.96 49.72 87.96 49.72 77.72 37.56 77.72"/>
  <polygon class="cls-2" points="25.87 89.73 25.87 77.72 15.31 77.72 15.31 84.72 25.16 90.91 44.42 100.85 44.42 89.73 25.87 89.73"/>
  <polygon class="cls-2" points="44.51 101.64 39.3 98.86 39.3 89.73 49.72 89.73 49.72 99.67 44.51 101.64"/>
  <polygon class="cls-3" points="61.6 77.72 54.42 77.72 51.37 77.72 51.37 89.73 51.37 90.69 51.37 98.5 61.6 92.53 61.6 90.69 61.6 89.73 61.6 87.96 69.93 87.96 73.49 85.53 73.49 77.72 61.6 77.72"/>
  <polygon class="cls-2" points="73.49 65.81 73.49 53.2 63.32 53.2 63.32 65.81 63.32 69.46 63.32 75.88 69.19 75.88 73.49 75.88 75.13 75.88 75.13 84.72 86.06 78.83 86.06 75.88 86.06 71.2 86.06 65.81 73.49 65.81"/>
  <path class="cls-1" d="M837,302.26a5.44,5.44,0,0,1,2.64.6l37.75,21.79a6.11,6.11,0,0,1,2.63,4.56V372.8a6.12,6.12,0,0,1-2.63,4.56l-37.75,21.79a6.12,6.12,0,0,1-5.27,0l-37.75-21.79a6.12,6.12,0,0,1-2.64-4.57V329.22a6.11,6.11,0,0,1,2.64-4.56l37.75-21.8a5.44,5.44,0,0,1,2.63-.6m0-2a7.42,7.42,0,0,0-3.64.87l-37.75,21.79a8.06,8.06,0,0,0-3.64,6.3V372.8a8.07,8.07,0,0,0,3.64,6.3l37.75,21.79a8.08,8.08,0,0,0,7.27,0l37.75-21.79a8.07,8.07,0,0,0,3.63-6.3V329.22a8.06,8.06,0,0,0-3.63-6.3l-37.75-21.79a7.42,7.42,0,0,0-3.64-.87h0Z" transform="translate(-791.87 -300.26)"/>
</svg>
