<svg id="icons" xmlns="http://www.w3.org/2000/svg" viewBox="0 0 90.04 101.77">
  <defs>
    <style>
      .cls-1, .cls-4 {
        fill: #fff;
      }

      .cls-2 {
        fill: none;
      }

      .cls-2, .cls-3, .cls-4 {
        stroke: #00aeef;
        stroke-linecap: round;
        stroke-linejoin: round;
        stroke-width: 1.5px;
      }

      .cls-3, .cls-5 {
        fill: #00aeef;
      }
    </style>
  </defs>
  <title>avatar-21</title>
  <path class="cls-1" d="M1065.84,474.74l37.75,21.79a8.08,8.08,0,0,0,7.27,0l37.75-21.79a8.07,8.07,0,0,0,3.63-6.3V424.86a8.06,8.06,0,0,0-3.63-6.3l-37.75-21.79a8,8,0,0,0-7.27,0l-37.75,21.79a8.06,8.06,0,0,0-3.64,6.3v43.59A8.07,8.07,0,0,0,1065.84,474.74Z" transform="translate(-1062.2 -395.9)"/>
  <polygon class="cls-2" points="20.94 49.69 14.5 40.85 27.38 40.85 20.94 49.69"/>
  <polygon class="cls-2" points="29.03 81.28 26.91 79.17 23.78 79.1 28.22 68.41 33.47 70.58 29.03 81.28"/>
  <polygon class="cls-3" points="39.89 78.88 42.02 76.78 45.14 76.71 40.71 66.01 35.46 68.19 39.89 78.88"/>
  <polygon class="cls-3" points="62.53 78.88 64.66 76.78 67.78 76.71 63.35 66.01 58.1 68.19 62.53 78.88"/>
  <line class="cls-2" x1="25.55" y1="74.84" x2="30.83" y2="76.94"/>
  <polygon class="cls-2" points="55.1 81.28 52.98 79.17 49.85 79.1 54.29 68.41 59.54 70.58 55.1 81.28"/>
  <line class="cls-2" x1="51.62" y1="74.84" x2="56.9" y2="76.94"/>
  <ellipse class="cls-4" cx="45.3" cy="52.22" rx="28.6" ry="20.02"/>
  <path class="cls-4" d="M1127.42,457.61c-3,3-7.91,5.09-13.49,5.34" transform="translate(-1062.2 -395.9)"/>
  <ellipse class="cls-4" cx="1081.33" cy="452.21" rx="6.19" ry="7.45" transform="translate(-1064.24 -391) rotate(-0.26)"/>
  <line class="cls-2" x1="29.04" y1="56.31" x2="35.02" y2="56.31"/>
  <polygon class="cls-2" points="42.18 57.73 35.74 48.9 48.63 48.9 42.18 57.73"/>
  <path class="cls-2" d="M1134.67,441.13a2.92,2.92,0,1,1,5.83,0s0.09,2.3-1.08,3c-0.82.47-1.94,0.2-2-1.42a3.45,3.45,0,0,1,3.49-3.49,3.49,3.49,0,1,1,0,7" transform="translate(-1062.2 -395.9)"/>
  <circle class="cls-5" cx="1083.68" cy="452.2" r="1.33" transform="translate(-1064.24 -390.97) rotate(-0.26)"/>
  <circle class="cls-5" cx="1078.91" cy="452.22" r="1.33" transform="translate(-1064.24 -390.99) rotate(-0.26)"/>
  <ellipse class="cls-3" cx="44.75" cy="38.41" rx="10.76" ry="1.94"/>
  <circle class="cls-4" cx="44.75" cy="32.79" r="4.95"/>
  <circle class="cls-4" cx="44.75" cy="18.21" r="4.95"/>
  <path class="cls-4" d="M1111.68,399.25a5,5,0,1,1-9.49.09" transform="translate(-1062.2 -395.9)"/>
  <g>
    <path class="cls-4" d="M1108.2,429.88a1.7,1.7,0,1,1,0-2.37" transform="translate(-1062.2 -395.9)"/>
    <line class="cls-2" x1="44.77" y1="31.12" x2="44.77" y2="30.2"/>
    <line class="cls-2" x1="44.77" y1="35.51" x2="44.77" y2="34.59"/>
  </g>
  <g>
    <path class="cls-4" d="M1108.2,415.24a1.7,1.7,0,1,1,0-2.37" transform="translate(-1062.2 -395.9)"/>
    <line class="cls-2" x1="44.77" y1="16.47" x2="44.77" y2="15.55"/>
    <line class="cls-2" x1="44.77" y1="20.87" x2="44.77" y2="19.95"/>
  </g>
  <g>
    <path class="cls-4" d="M1108.2,401.86a1.7,1.7,0,1,1,0-2.37" transform="translate(-1062.2 -395.9)"/>
    <line class="cls-2" x1="44.77" y1="3.09" x2="44.77" y2="2.17"/>
    <line class="cls-2" x1="44.77" y1="7.49" x2="44.77" y2="6.57"/>
  </g>
  <path class="cls-1" d="M1107.22,398.17a5.44,5.44,0,0,1,2.64.6l37.75,21.79a6.11,6.11,0,0,1,2.63,4.56v43.59a6.12,6.12,0,0,1-2.63,4.56l-37.75,21.79a6.12,6.12,0,0,1-5.27,0l-37.75-21.79a6.12,6.12,0,0,1-2.64-4.57V425.13a6.11,6.11,0,0,1,2.64-4.56l37.75-21.8a5.45,5.45,0,0,1,2.63-.6m0-2a7.42,7.42,0,0,0-3.64.87l-37.75,21.79a8.06,8.06,0,0,0-3.64,6.3v43.59a8.07,8.07,0,0,0,3.64,6.3l37.75,21.79a8.08,8.08,0,0,0,7.27,0L1148.6,475a8.07,8.07,0,0,0,3.63-6.3V425.13a8.06,8.06,0,0,0-3.63-6.3L1110.86,397a7.42,7.42,0,0,0-3.64-.87h0Z" transform="translate(-1062.2 -395.9)"/>
</svg>
