<svg id="icons" xmlns="http://www.w3.org/2000/svg" viewBox="0 0 90.04 101.5">
  <defs>
    <style>
      .cls-1, .cls-3 {
        fill: #fff;
      }

      .cls-2, .cls-5 {
        fill: #00aeef;
      }

      .cls-2, .cls-3, .cls-4 {
        stroke: #00aeef;
        stroke-linecap: round;
        stroke-linejoin: round;
        stroke-width: 1.5px;
      }

      .cls-4 {
        fill: none;
      }
    </style>
  </defs>
  <title>avatar-19</title>
  <path class="cls-1" d="M1119.84,379.1l37.75,21.79a8.08,8.08,0,0,0,7.27,0l37.75-21.79a8.07,8.07,0,0,0,3.63-6.3V329.22a8.06,8.06,0,0,0-3.63-6.3l-37.75-21.79a8,8,0,0,0-7.27,0l-37.75,21.79a8.06,8.06,0,0,0-3.64,6.3V372.8A8.07,8.07,0,0,0,1119.84,379.1Z" transform="translate(-1116.2 -300.26)"/>
  <path class="cls-2" d="M1140.07,375.76l1.37,3.93c0,2.69,9,4.86,20,4.86s20-2.18,20-4.86l1.37-3.93" transform="translate(-1116.2 -300.26)"/>
  <path class="cls-3" d="M1176.47,371.39c4,1.1,6.44,2.63,6.44,4.32,0,3.34-9.6,6.05-21.44,6.05s-21.44-2.71-21.44-6.05c0-1.69,2.47-3.23,6.44-4.32" transform="translate(-1116.2 -300.26)"/>
  <path class="cls-3" d="M1146.38,345.57v28.28c0,2,6.72,3.54,15,3.54s15-1.58,15-3.54V345.57" transform="translate(-1116.2 -300.26)"/>
  <path class="cls-1" d="M1174.17,355.47s1.58-2.55,2.21-2.55,3.73,1,1.47,2.13a21.13,21.13,0,0,0-3.33,2Z" transform="translate(-1116.2 -300.26)"/>
  <path class="cls-1" d="M1174.36,364.91s1.58,2.55,2.21,2.55,3.73-1,1.47-2.13a21.13,21.13,0,0,1-3.33-2Z" transform="translate(-1116.2 -300.26)"/>
  <ellipse class="cls-4" cx="45.2" cy="45.31" rx="15.02" ry="3.54"/>
  <path class="cls-4" d="M1149.09,347.42a51,51,0,0,1,24.55,0" transform="translate(-1116.2 -300.26)"/>
  <path class="cls-4" d="M1174.8,353.85a8.17,8.17,0,1,1-.07,12.45" transform="translate(-1116.2 -300.26)"/>
  <path class="cls-4" d="M1176.89,356.54a4.65,4.65,0,1,1,0,7.09" transform="translate(-1116.2 -300.26)"/>
  <path class="cls-5" d="M1154.18,349.11s-4.47-1.4-2.05-2.45,10.58-.87,14-0.75,8.25,2,4.29,2.49S1154.18,349.11,1154.18,349.11Z" transform="translate(-1116.2 -300.26)"/>
  <path class="cls-4" d="M1158.87,333.14a4,4,0,0,1,1.52-7.8" transform="translate(-1116.2 -300.26)"/>
  <path class="cls-4" d="M1157.25,320.68a4,4,0,1,1,3.14,4.66" transform="translate(-1116.2 -300.26)"/>
  <path class="cls-4" d="M1158.87,333.14a4,4,0,0,1,3.14,4.66" transform="translate(-1116.2 -300.26)"/>
  <path class="cls-4" d="M1168,334.49a2.71,2.71,0,0,0-3.41-4.2" transform="translate(-1116.2 -300.26)"/>
  <path class="cls-4" d="M1170.13,322.22a2.71,2.71,0,0,1-1.75,3.41" transform="translate(-1116.2 -300.26)"/>
  <path class="cls-4" d="M1153.11,335.75a2.71,2.71,0,0,1,2.86,2.54" transform="translate(-1116.2 -300.26)"/>
  <path class="cls-4" d="M1168,334.49a2.71,2.71,0,0,0-.39,3.81" transform="translate(-1116.2 -300.26)"/>
  <path class="cls-4" d="M1155.92,359.29a0.37,0.37,0,0,1,.16-0.29l5.13-3a0.36,0.36,0,0,1,.32,0l5.13,3a0.37,0.37,0,0,1,.16.29v6a0.36,0.36,0,0,1-.16.29l-5.13,3a0.36,0.36,0,0,1-.32,0l-5.13-3a0.37,0.37,0,0,1-.16-0.29v-6Z" transform="translate(-1116.2 -300.26)"/>
</svg>
