<svg id="icons" xmlns="http://www.w3.org/2000/svg" viewBox="0 0 90.04 101.5">
  <defs>
    <style>
      .cls-1, .cls-3 {
        fill: #fff;
      }

      .cls-2 {
        fill: none;
      }

      .cls-2, .cls-3 {
        stroke: #00aeef;
        stroke-linecap: round;
        stroke-linejoin: round;
        stroke-width: 1.5px;
      }
    </style>
  </defs>
  <title>avatar-18</title>
  <path class="cls-1" d="M1011.84,379.1l37.75,21.79a8.08,8.08,0,0,0,7.27,0l37.75-21.79a8.07,8.07,0,0,0,3.63-6.3V329.22a8.06,8.06,0,0,0-3.63-6.3l-37.75-21.79a8,8,0,0,0-7.27,0l-37.75,21.79a8.06,8.06,0,0,0-3.64,6.3V372.8A8.07,8.07,0,0,0,1011.84,379.1Z" transform="translate(-1008.2 -300.26)"/>
  <path class="cls-2" d="M1026,384.54a30.79,30.79,0,0,1,55,.09" transform="translate(-1008.2 -300.26)"/>
  <path class="cls-2" d="M1032.54,388.71a23.28,23.28,0,0,1,41.69-.15" transform="translate(-1008.2 -300.26)"/>
  <path class="cls-2" d="M1036.58,391a18.73,18.73,0,0,1,33.55-.31" transform="translate(-1008.2 -300.26)"/>
  <line class="cls-2" x1="28.23" y1="72.52" x2="32.79" y2="79.06"/>
  <line class="cls-2" x1="25.28" y1="75.46" x2="29.46" y2="81.62"/>
  <polyline class="cls-3" points="63.76 53.23 53.58 63.41 45.23 71.76 36.69 63.22 26.7 53.23"/>
  <path class="cls-2" d="M1034.81,332.28a1.25,1.25,0,0,1,.56-1L1052.87,321a1.22,1.22,0,0,1,1.11,0l17.51,10.28a1.25,1.25,0,0,1,.55,1v20.55a1.25,1.25,0,0,1-.55,1L1054,364.09a1.22,1.22,0,0,1-1.11,0l-17.51-10.28a1.25,1.25,0,0,1-.56-1V332.28Z" transform="translate(-1008.2 -300.26)"/>
  <line class="cls-2" x1="45.23" y1="63.96" x2="45.23" y2="71.01"/>
  <polyline class="cls-2" points="26.7 53.23 39.1 51.84 45.23 63.96"/>
  <polyline class="cls-2" points="63.76 53.23 51.36 51.84 45.23 63.96"/>
  <polyline class="cls-2" points="63.76 31.64 51.36 33.03 45.23 20.91"/>
  <polyline class="cls-2" points="26.88 31.64 39.28 33.03 45.41 20.91"/>
  <polyline class="cls-2" points="27.05 31.59 34.39 41.68 26.88 53"/>
  <polyline class="cls-2" points="63.67 31.59 56.33 41.68 63.84 53"/>
  <polygon class="cls-2" points="34.39 41.68 39.28 33.03 51.36 33.03 56.33 41.68 51.7 51.87 39.1 51.87 34.39 41.68"/>
  <g>
    <path class="cls-3" d="M1071.29,317a3.85,3.85,0,0,1-3.85,3.85" transform="translate(-1008.2 -300.26)"/>
    <path class="cls-3" d="M1071.29,317a3.85,3.85,0,0,0,3.85,3.85" transform="translate(-1008.2 -300.26)"/>
    <path class="cls-3" d="M1071.29,324.76a3.85,3.85,0,0,1,3.85-3.85" transform="translate(-1008.2 -300.26)"/>
    <path class="cls-3" d="M1071.29,324.76a3.85,3.85,0,0,0-3.85-3.85" transform="translate(-1008.2 -300.26)"/>
  </g>
  <g>
    <path class="cls-3" d="M1085.53,339.66a6.43,6.43,0,0,1-6.43,6.43" transform="translate(-1008.2 -300.26)"/>
    <path class="cls-3" d="M1085.53,339.66a6.43,6.43,0,0,0,6.43,6.43" transform="translate(-1008.2 -300.26)"/>
    <path class="cls-3" d="M1085.53,352.59a6.43,6.43,0,0,1,6.43-6.43" transform="translate(-1008.2 -300.26)"/>
    <path class="cls-3" d="M1085.53,352.59a6.43,6.43,0,0,0-6.43-6.43" transform="translate(-1008.2 -300.26)"/>
  </g>
  <g>
    <path class="cls-3" d="M1021.79,337.92a4.77,4.77,0,0,1-4.77,4.77" transform="translate(-1008.2 -300.26)"/>
    <path class="cls-3" d="M1021.79,337.92a4.77,4.77,0,0,0,4.77,4.77" transform="translate(-1008.2 -300.26)"/>
    <path class="cls-3" d="M1021.79,347.51a4.77,4.77,0,0,1,4.77-4.77" transform="translate(-1008.2 -300.26)"/>
    <path class="cls-3" d="M1021.79,347.51a4.77,4.77,0,0,0-4.77-4.77" transform="translate(-1008.2 -300.26)"/>
  </g>
  <line class="cls-2" x1="51.66" y1="52.33" x2="55.1" y2="57.9"/>
  <line class="cls-2" x1="56.73" y1="41.76" x2="63.76" y2="41.76"/>
  <line class="cls-2" x1="33.88" y1="41.76" x2="26.61" y2="41.76"/>
  <line class="cls-2" x1="38.9" y1="52.33" x2="35.65" y2="57.9"/>
  <line class="cls-2" x1="51.36" y1="33.04" x2="55.52" y2="26.48"/>
  <line class="cls-2" x1="39.28" y1="33.04" x2="35.25" y2="26.97"/>
  <path class="cls-1" d="M1053.23,302.26a5.44,5.44,0,0,1,2.63.6l37.75,21.79a6.11,6.11,0,0,1,2.63,4.56V372.8a6.12,6.12,0,0,1-2.63,4.56l-37.75,21.79a6.12,6.12,0,0,1-5.27,0l-37.75-21.79a6.12,6.12,0,0,1-2.64-4.57V329.22a6.11,6.11,0,0,1,2.64-4.56l37.75-21.8a5.45,5.45,0,0,1,2.63-.6m0-2a7.42,7.42,0,0,0-3.64.87l-37.75,21.79a8.06,8.06,0,0,0-3.64,6.3V372.8a8.07,8.07,0,0,0,3.64,6.3l37.75,21.79a8.08,8.08,0,0,0,7.27,0l37.75-21.79a8.07,8.07,0,0,0,3.63-6.3V329.22a8.06,8.06,0,0,0-3.63-6.3l-37.75-21.79a7.41,7.41,0,0,0-3.63-.87h0Z" transform="translate(-1008.2 -300.26)"/>
</svg>
