<?xml version="1.0" encoding="iso-8859-1"?>
<!-- Generator: Adobe Illustrator 18.1.1, SVG Export Plug-In . SVG Version: 6.00 Build 0)  -->
<svg version="1.1" id="Layer_1" xmlns="http://www.w3.org/2000/svg" xmlns:xlink="http://www.w3.org/1999/xlink" x="0px" y="0px"
	 viewBox="0 0 63.6 63.6" style="enable-background:new 0 0 63.6 63.6;" xml:space="preserve">
<g>
	<path style="fill:#EF3F23;" d="M43.018,52.573c0.789,2.576,1.437,5.341,1.97,8.161c2.351-1.073,4.547-2.423,6.548-4.01
		c-0.704-0.137-1.436-0.425-2.153-0.963C47.105,54.052,44.752,52.929,43.018,52.573z"/>
	<path style="fill:#EF3F23;" d="M19.424,54.087c-3.696-0.776-10.719-2.853-13.154-7.722C3.108,40.042,9.399,38,9.399,38
		s3.875-1.032,6.112,2.094c2.342,3.273,5.192,5.513,6.797,5.537c0.105,0.002,0.192,0.044,0.266,0.116
		c1.026-1.973,2.199-3.661,3.542-4.948c-5.403-2.127-9.232-7.381-9.232-13.539c0-8.04,6.518-14.558,14.558-14.558
		C39.482,12.702,46,19.22,46,27.26c0,6.158-3.83,11.411-9.232,13.539c0.9,0.862,1.724,1.903,2.479,3.091
		c1.44-0.252,12.178-1.928,17.058,3.105c0.92,0.949,1.48,1.855,1.782,2.701C61.564,44.598,63.6,38.437,63.6,31.8
		C63.6,14.237,49.363,0,31.8,0C14.237,0,0,14.237,0,31.8c0,12.599,7.328,23.485,17.953,28.633
		C18.37,58.261,18.857,56.126,19.424,54.087z"/>
	<path style="fill:#FFFFFF;" d="M39.246,43.89c1.522,2.396,2.763,5.384,3.773,8.683c1.733,0.356,4.086,1.478,6.365,3.188
		c0.717,0.538,1.449,0.826,2.153,0.963c2.52-1.998,4.733-4.365,6.549-7.028c-0.302-0.846-0.862-1.752-1.782-2.701
		C51.424,41.963,40.685,43.639,39.246,43.89z M53.913,50.575l-1.236,1.797c-0.349,0.507-0.911,0.779-1.483,0.779
		c-0.351,0-0.706-0.103-1.016-0.316c-0.818-0.562-1.025-1.681-0.463-2.499l1.236-1.797c0.562-0.818,1.681-1.022,2.499-0.463
		C54.268,48.638,54.475,49.757,53.913,50.575z"/>
	<path style="fill:#FFFFFF;" d="M22.308,45.631c-1.605-0.024-4.455-2.263-6.797-5.537C13.274,36.967,9.399,38,9.399,38
		s-6.291,2.042-3.13,8.365c2.435,4.869,9.458,6.946,13.154,7.722c0.854-3.071,1.892-5.92,3.15-8.34
		C22.5,45.675,22.413,45.633,22.308,45.631z M13.94,44.762l-2.022,2.022c-0.351,0.351-0.811,0.526-1.271,0.526
		s-0.92-0.175-1.271-0.526c-0.702-0.702-0.702-1.839,0-2.541l2.022-2.022c0.702-0.702,1.839-0.702,2.541,0
		S14.642,44.06,13.94,44.762z"/>
	<path style="fill:#FFFFFF;" d="M41.234,52.532c-1.538,0.461-2.153-8.612-2.153-8.612s0.06-0.011,0.165-0.03
		c-0.755-1.188-1.579-2.229-2.479-3.091c-1.651,0.65-3.444,1.019-5.326,1.019s-3.675-0.369-5.326-1.019
		c-1.342,1.286-2.515,2.974-3.542,4.948c1.067,1.026-0.81,8.745-0.81,8.745s-0.929-0.108-2.34-0.404
		c-0.567,2.039-1.054,4.174-1.471,6.346C22.139,62.461,26.836,63.6,31.8,63.6c4.706,0,9.17-1.031,13.189-2.865
		c-0.533-2.82-1.181-5.585-1.97-8.161C42.303,52.427,41.683,52.397,41.234,52.532z M30.93,59.108c-1.318,0-2.386-1.068-2.386-2.386
		s1.068-2.386,2.386-2.386s2.386,1.068,2.386,2.386S32.248,59.108,30.93,59.108z"/>
	<path style="fill:#FFFFFF;" d="M41.234,52.532c0.449-0.135,1.07-0.105,1.785,0.042c-1.01-3.299-2.25-6.287-3.773-8.683
		c-0.105,0.018-0.165,0.03-0.165,0.03S39.696,52.993,41.234,52.532z"/>
	<path style="fill:#FFFFFF;" d="M22.574,45.747c-1.259,2.42-2.296,5.269-3.15,8.34c1.411,0.296,2.34,0.404,2.34,0.404
		S23.641,46.773,22.574,45.747z"/>
	<path style="fill:#FFFFFF;" d="M28.979,39.768h4.926h1.635c0.424,0.306,0.832,0.653,1.227,1.031C42.17,38.672,46,33.419,46,27.26
		c0-8.04-6.518-14.558-14.558-14.558c-8.04,0-14.558,6.518-14.558,14.558c0,6.158,3.83,11.411,9.232,13.539
		c0.395-0.378,0.803-0.725,1.227-1.031H28.979z"/>
	<path style="fill:#FFFFFF;" d="M36.767,40.799c-0.395-0.378-0.803-0.725-1.227-1.031h-1.635h-4.926h-1.635
		c-0.424,0.306-0.832,0.653-1.227,1.031c1.651,0.65,3.444,1.019,5.326,1.019S35.116,41.449,36.767,40.799z"/>
	<circle style="fill:#999999;" cx="30.93" cy="56.722" r="2.386"/>
	<path style="fill:#999999;" d="M53.45,48.075c-0.818-0.559-1.938-0.354-2.499,0.463l-1.236,1.797
		c-0.562,0.818-0.354,1.937,0.463,2.499c0.311,0.213,0.665,0.316,1.016,0.316c0.572,0,1.134-0.272,1.483-0.779l1.236-1.797
		C54.475,49.757,54.268,48.638,53.45,48.075z"/>
	<path style="fill:#999999;" d="M11.398,42.221l-2.022,2.022c-0.702,0.702-0.702,1.839,0,2.541c0.351,0.351,0.811,0.526,1.271,0.526
		s0.92-0.175,1.271-0.526l2.022-2.022c0.702-0.702,0.702-1.839,0-2.541S12.101,41.518,11.398,42.221z"/>
</g>
<g>
	<circle style="fill:#A7A9AC;" cx="25.999" cy="24.682" r="2.478"/>
</g>
<g>
	<path style="fill:#A7A9AC;" d="M38.477,26.182c0,1.368-4.955,1.208-4.955,0c0-1.368,1.109-2.478,2.478-2.478
		C37.367,23.705,38.477,24.814,38.477,26.182z"/>
</g>
<g>
	<circle style="fill:#EF3F23;" cx="20.579" cy="16.067" r="1.938"/>
	<circle style="fill:#EF3F23;" cx="21.417" cy="19.609" r="1.938"/>
	<circle style="fill:#EF3F23;" cx="20.269" cy="22.81" r="1.938"/>
	<circle style="fill:#EF3F23;" cx="17.181" cy="24.67" r="1.938"/>
	<circle style="fill:#EF3F23;" cx="16.119" cy="19.178" r="5.5"/>
</g>
<g>
	<g>
		<g>
			<path style="fill:#A7A9AC;" d="M34.885,36.513c-1.963,0-3.926,0-5.889,0c-0.611,0-1.42,0.157-2.009,0
				c-3.793-1.012-0.92-4.036,1.166-4.291c1.735-0.212,3.621,0,5.368,0c0.657,0,1.885-0.228,2.53,0
				C39.216,33.34,37.396,36.221,34.885,36.513c-0.551,0.064,0.585,2.165,1.218,2.091c4.736-0.55,3.851-6.429,0.333-8.101
				c-1.377-0.655-3.21-0.373-4.681-0.373c-1.573,0-3.258-0.179-4.821,0c-4.738,0.542-3.855,6.427-0.333,8.101
				c1.299,0.618,3.018,0.373,4.407,0.373c1.698,0,3.396,0,5.095,0C36.588,38.604,35.559,36.513,34.885,36.513z"/>
		</g>
	</g>
	<g>
		<g>
			<g>
				<path style="fill:#A7A9AC;" d="M28.029,31.065c0,1.978,0,3.957,0,5.935c0,0.881,2.165,2.016,2.165,1.117
					c0-1.978,0-3.957,0-5.935C30.194,31.301,28.029,30.166,28.029,31.065L28.029,31.065z"/>
			</g>
		</g>
		<g>
			<g>
				<path style="fill:#A7A9AC;" d="M32.679,31.708c0,1.978,0,3.957,0,5.935c0,0.859,2.494,0.744,2.494-0.169
					c0-1.978,0-3.957,0-5.935C35.174,30.68,32.679,30.795,32.679,31.708L32.679,31.708z"/>
			</g>
		</g>
	</g>
</g>
<g>
	<g>
		<path style="fill:#A7A9AC;" d="M38.876,21.4c-1.736-0.252-3.792-0.081-5.098,1.207c-0.574,0.566,0.31,1.449,0.884,0.884
			c0.67-0.66,1.611-0.871,2.525-0.919c0.328-0.017,0.658-0.015,0.986,0.005c0.095,0.006,0.532,0.052,0.371,0.029
			C39.33,22.72,39.67,21.516,38.876,21.4L38.876,21.4z"/>
	</g>
</g>
<g>
	<g>
		<path style="fill:#A7A9AC;" d="M24.386,19.356c-0.177,0.026,0.213-0.018,0.305-0.025c0.35-0.024,0.702-0.028,1.052-0.009
			c0.914,0.049,1.855,0.259,2.525,0.919c0.574,0.565,1.458-0.318,0.884-0.884c-1.307-1.288-3.362-1.459-5.098-1.207
			C23.26,18.266,23.597,19.47,24.386,19.356L24.386,19.356z"/>
	</g>
</g>
<path style="fill:#A7A9AC;" d="M35.635,41.136l-2.125,6.75l-2.125-4.5l-2.375,4l-2-6.25C27.01,41.136,31.01,43.511,35.635,41.136z"
	/>
</svg>
