<svg id="icons" xmlns="http://www.w3.org/2000/svg" viewBox="0 0 90.88 102.45">
  <defs>
    <style>
      .cls-1, .cls-9 {
        fill: #fff;
      }

      .cls-2, .cls-3, .cls-4, .cls-5, .cls-6, .cls-7, .cls-8 {
        fill: none;
      }

      .cls-2, .cls-3, .cls-4, .cls-5, .cls-6, .cls-7, .cls-8, .cls-9 {
        stroke: #00aeef;
        stroke-linecap: round;
        stroke-linejoin: round;
        stroke-width: 1.5px;
      }

      .cls-3 {
        stroke-dasharray: 2.07 5.17;
      }

      .cls-4 {
        stroke-dasharray: 1.91 4.79;
      }

      .cls-5 {
        stroke-dasharray: 1.91 4.78;
      }

      .cls-6 {
        stroke-dasharray: 1.97 4.92;
      }

      .cls-7 {
        stroke-dasharray: 1.83 4.57;
      }

      .cls-8 {
        stroke-dasharray: 2.24 5.6;
      }
    </style>
  </defs>
  <title>avatar-22</title>
  <path class="cls-1" d="M1119.84,571.29l37.75,21.79a8.08,8.08,0,0,0,7.27,0l37.75-21.79a8.07,8.07,0,0,0,3.63-6.3V521.41a8.06,8.06,0,0,0-3.63-6.3l-37.75-21.79a8,8,0,0,0-7.27,0l-37.75,21.79a8.06,8.06,0,0,0-3.64,6.3V565A8.07,8.07,0,0,0,1119.84,571.29Z" transform="translate(-1116.13 -491.94)"/>
  <g>
    <path class="cls-2" d="M1117.52,564.61q0.25,0.44.52,0.86" transform="translate(-1116.13 -491.94)"/>
    <path class="cls-3" d="M1121.48,569.3a16.25,16.25,0,0,0,10.27,3.64c9,0,17.86-7.37,17.86-16.39,0-4.15-3.09-7.88-5.65-10.76,0,0-13-5.87-20,5.92-3,5-2.58,11.48-1,17.84" transform="translate(-1116.13 -491.94)"/>
    <path class="cls-2" d="M1123.64,572.05l0.29,1" transform="translate(-1116.13 -491.94)"/>
  </g>
  <g>
    <path class="cls-2" d="M1144.74,503.71a7.33,7.33,0,0,1,.73.68" transform="translate(-1116.13 -491.94)"/>
    <path class="cls-4" d="M1147.7,508.57c2.31,8.37-2.7,23.31-23.61,33.86a15.42,15.42,0,0,0-5.29,4.34" transform="translate(-1116.13 -491.94)"/>
    <path class="cls-2" d="M1117.48,548.78q-0.24.44-.46,0.89" transform="translate(-1116.13 -491.94)"/>
  </g>
  <g>
    <line class="cls-2" x1="35.05" y1="42.81" x2="34.07" y2="42.6"/>
    <path class="cls-5" d="M1145.52,533.56l-12.68-2.67A13.72,13.72,0,0,1,1122,518" transform="translate(-1116.13 -491.94)"/>
    <path class="cls-2" d="M1122.07,515.63q0.07-.49.17-1" transform="translate(-1116.13 -491.94)"/>
  </g>
  <g>
    <path class="cls-2" d="M1195.63,571.47q-0.13-.48-0.29-1" transform="translate(-1116.13 -491.94)"/>
    <path class="cls-6" d="M1193.19,566.1a19.27,19.27,0,0,0-35.39,10.55,20.79,20.79,0,0,1-2,9.92" transform="translate(-1116.13 -491.94)"/>
    <path class="cls-2" d="M1154.5,588.62q-0.31.39-.67,0.75" transform="translate(-1116.13 -491.94)"/>
  </g>
  <g>
    <path class="cls-2" d="M1178.3,504.79q-0.37.33-.76,0.65" transform="translate(-1116.13 -491.94)"/>
    <path class="cls-7" d="M1173.61,507.75a16.34,16.34,0,0,1-20.28-6.78" transform="translate(-1116.13 -491.94)"/>
    <path class="cls-2" d="M1152.3,498.93q-0.19-.46-0.36-0.94" transform="translate(-1116.13 -491.94)"/>
  </g>
  <g>
    <path class="cls-2" d="M1203,562.05q-0.4-.3-0.79-0.62" transform="translate(-1116.13 -491.94)"/>
    <path class="cls-8" d="M1198.58,557.18a16.33,16.33,0,0,1,2-19.27" transform="translate(-1116.13 -491.94)"/>
    <path class="cls-2" d="M1202.65,536q0.39-.31.81-0.59" transform="translate(-1116.13 -491.94)"/>
  </g>
  <ellipse class="cls-9" cx="1177.07" cy="532.02" rx="15.17" ry="12.32" transform="translate(-1195.74 -258.73) rotate(-10.95)"/>
  <path class="cls-2" d="M1171.27,543.74a16,16,0,0,1-3.21-21" transform="translate(-1116.13 -491.94)"/>
  <path class="cls-2" d="M1179.26,543.88a13.95,13.95,0,0,1-4.18-23.73l0.31-.25" transform="translate(-1116.13 -491.94)"/>
  <path class="cls-2" d="M1183.81,542.28a13.13,13.13,0,0,1-4.24-22.37" transform="translate(-1116.13 -491.94)"/>
  <path class="cls-9" d="M1188.82,532.59a1.41,1.41,0,0,1-2.76.53" transform="translate(-1116.13 -491.94)"/>
  <line class="cls-2" x1="75.21" y1="35.17" x2="71.92" y2="35.81"/>
  <line class="cls-2" x1="67.78" y1="36.61" x2="64.07" y2="37.33"/>
  <line class="cls-2" x1="68.97" y1="50.06" x2="70.82" y2="52.33"/>
  <line class="cls-2" x1="54.73" y1="51.97" x2="53.32" y2="54.76"/>
  <line class="cls-2" x1="61.95" y1="52.73" x2="62.32" y2="54.84"/>
  <line class="cls-2" x1="58.7" y1="52.94" x2="58.59" y2="55.08"/>
  <line class="cls-2" x1="65.75" y1="51.7" x2="66.62" y2="53.53"/>
  <line class="cls-2" x1="71.39" y1="48.75" x2="73.18" y2="50.57"/>
  <polyline class="cls-2" points="46.29 44.19 41.2 42.98 45.47 39.96"/>
  <line class="cls-2" x1="70.27" y1="29.38" x2="72.59" y2="22.7"/>
  <line class="cls-2" x1="66.91" y1="30.56" x2="66.61" y2="19.12"/>
  <path class="cls-1" d="M1161.57,493.94a5.51,5.51,0,0,1,2.67.61l38.1,22a6.19,6.19,0,0,1,2.67,4.62v44a6.2,6.2,0,0,1-2.67,4.62l-38.1,22a6.2,6.2,0,0,1-5.34,0l-38.1-22a6.2,6.2,0,0,1-2.67-4.62v-44a6.18,6.18,0,0,1,2.67-4.62l38.11-22a5.52,5.52,0,0,1,2.67-.61m0-2a7.49,7.49,0,0,0-3.67.88l-38.1,22a8.13,8.13,0,0,0-3.67,6.35v44a8.15,8.15,0,0,0,3.67,6.36l38.1,22a8.15,8.15,0,0,0,7.34,0l38.1-22a8.15,8.15,0,0,0,3.67-6.36v-44a8.14,8.14,0,0,0-3.67-6.35l-38.1-22a7.49,7.49,0,0,0-3.67-.88h0Z" transform="translate(-1116.13 -491.94)"/>
</svg>
