<?xml version="1.0" encoding="iso-8859-1"?>
<!-- Generator: Adobe Illustrator 18.1.1, SVG Export Plug-In . SVG Version: 6.00 Build 0)  -->
<svg version="1.1" id="Layer_1" xmlns="http://www.w3.org/2000/svg" xmlns:xlink="http://www.w3.org/1999/xlink" x="0px" y="0px"
	 viewBox="0 0 63.6 63.6" style="enable-background:new 0 0 63.6 63.6;" xml:space="preserve">
<g>
	<path style="fill:#2DB34A;" d="M31.8,0C14.237,0,0,14.237,0,31.8c0,6.637,2.036,12.798,5.514,17.896
		c0.302-0.846,0.862-1.752,1.782-2.701c4.881-5.033,15.619-3.357,17.058-3.105c0.755-1.188,1.579-2.229,2.479-3.091
		C21.43,38.672,17.6,33.419,17.6,27.26c0-8.04,6.518-14.558,14.558-14.558S46.716,19.22,46.716,27.26
		c0,6.158-3.83,11.411-9.232,13.539c1.342,1.286,2.515,2.974,3.542,4.948c0.074-0.071,0.161-0.114,0.266-0.115
		c1.605-0.024,4.455-2.263,6.797-5.537C50.326,36.967,54.201,38,54.201,38s6.291,2.042,3.13,8.365
		c-2.435,4.869-9.458,6.946-13.154,7.722c0.567,2.039,1.054,4.174,1.471,6.346C56.272,55.285,63.6,44.399,63.6,31.8
		C63.6,14.237,49.363,0,31.8,0z"/>
	<path style="fill:#2DB34A;" d="M14.216,55.761c-0.717,0.538-1.449,0.826-2.153,0.963c2.002,1.587,4.198,2.937,6.548,4.01
		c0.533-2.82,1.181-5.585,1.97-8.161C18.848,52.929,16.495,54.052,14.216,55.761z"/>
	<path style="fill:#FFFFFF;" d="M29.695,39.768h4.926h1.635c0.424,0.306,0.832,0.653,1.227,1.031
		c5.403-2.127,9.232-7.381,9.232-13.539c0-8.04-6.518-14.558-14.558-14.558S17.6,19.22,17.6,27.26c0,6.158,3.83,11.411,9.232,13.539
		c0.395-0.378,0.803-0.725,1.227-1.031H29.695z"/>
	<path style="fill:#FFFFFF;" d="M20.581,52.573c1.01-3.299,2.25-6.287,3.773-8.683c-1.44-0.252-12.178-1.928-17.058,3.105
		c-0.92,0.949-1.48,1.855-1.782,2.701c1.816,2.662,4.029,5.03,6.549,7.028c0.704-0.137,1.436-0.425,2.153-0.963
		C16.495,54.052,18.848,52.929,20.581,52.573z M13.422,52.835c-0.311,0.213-0.665,0.316-1.016,0.316
		c-0.572,0-1.134-0.272-1.483-0.779l-1.236-1.797c-0.562-0.818-0.354-1.937,0.463-2.499c0.818-0.559,1.938-0.355,2.499,0.463
		l1.236,1.797C14.447,51.154,14.24,52.273,13.422,52.835z"/>
	<path style="fill:#FFFFFF;" d="M57.33,46.365c3.161-6.323-3.13-8.365-3.13-8.365s-3.875-1.032-6.112,2.094
		c-2.342,3.273-5.192,5.513-6.797,5.537c-0.105,0.002-0.192,0.044-0.266,0.115c1.259,2.42,2.296,5.269,3.15,8.341
		C47.872,53.311,54.895,51.234,57.33,46.365z M49.66,42.221c0.702-0.702,1.839-0.702,2.541,0l2.022,2.022
		c0.702,0.702,0.702,1.839,0,2.541c-0.351,0.351-0.811,0.527-1.271,0.527s-0.92-0.176-1.271-0.527l-2.022-2.022
		C48.958,44.06,48.958,42.923,49.66,42.221z"/>
	<path style="fill:#FFFFFF;" d="M41.836,54.491c0,0-1.877-7.719-0.81-8.745c-1.026-1.973-2.199-3.661-3.542-4.948
		c-1.651,0.65-3.444,1.019-5.326,1.019s-3.674-0.369-5.326-1.019c-0.9,0.862-1.724,1.903-2.479,3.091
		c0.105,0.018,0.165,0.03,0.165,0.03s-0.615,9.073-2.153,8.612c-0.449-0.135-1.07-0.105-1.785,0.042
		c-0.789,2.576-1.437,5.341-1.97,8.161C22.63,62.569,27.094,63.6,31.8,63.6c0.015,0,0.031-0.001,0.046-0.001
		c0.258-0.095,0.533-0.155,0.824-0.155c0.245,0,0.477,0.048,0.7,0.116c4.384-0.213,8.535-1.314,12.278-3.127
		c-0.417-2.172-0.904-4.307-1.471-6.346C42.765,54.384,41.836,54.491,41.836,54.491z M32.67,59.108
		c-1.318,0-2.386-1.068-2.386-2.386s1.068-2.386,2.386-2.386s2.386,1.068,2.386,2.386S33.987,59.108,32.67,59.108z M32.67,51.358
		c-1.318,0-2.386-1.068-2.386-2.386s1.068-2.386,2.386-2.386s2.386,1.068,2.386,2.386S33.987,51.358,32.67,51.358z"/>
	<path style="fill:#FFFFFF;" d="M37.484,40.799c-0.395-0.378-0.803-0.725-1.227-1.031h-1.635h-4.926H28.06
		c-0.424,0.306-0.832,0.653-1.227,1.031c1.651,0.65,3.444,1.019,5.326,1.019S35.833,41.449,37.484,40.799z"/>
	<path style="fill:#FFFFFF;" d="M22.366,52.532c1.538,0.461,2.153-8.612,2.153-8.612s-0.06-0.011-0.165-0.03
		c-1.522,2.396-2.763,5.384-3.773,8.683C21.297,52.427,21.917,52.397,22.366,52.532z"/>
	<path style="fill:#FFFFFF;" d="M41.836,54.491c0,0,0.929-0.108,2.34-0.404c-0.854-3.071-1.892-5.92-3.15-8.341
		C39.959,46.772,41.836,54.491,41.836,54.491z"/>
	<path style="fill:#FFFFFF;" d="M31.846,63.599c0.511-0.001,1.019-0.014,1.523-0.039c-0.223-0.069-0.454-0.116-0.7-0.116
		C32.379,63.444,32.104,63.504,31.846,63.599z"/>
	<circle style="fill:#999999;" cx="32.67" cy="56.722" r="2.386"/>
	<circle style="fill:#999999;" cx="32.67" cy="48.972" r="2.386"/>
	<path style="fill:#999999;" d="M12.649,48.539c-0.562-0.818-1.681-1.022-2.499-0.463c-0.818,0.562-1.025,1.681-0.463,2.499
		l1.236,1.797c0.349,0.507,0.911,0.779,1.483,0.779c0.351,0,0.706-0.103,1.016-0.316c0.818-0.562,1.025-1.681,0.463-2.499
		L12.649,48.539z"/>
	<path style="fill:#999999;" d="M51.682,46.784c0.351,0.351,0.811,0.527,1.271,0.527s0.92-0.176,1.271-0.527
		c0.702-0.702,0.702-1.839,0-2.541l-2.022-2.022c-0.702-0.702-1.839-0.702-2.541,0c-0.702,0.702-0.702,1.839,0,2.541L51.682,46.784z
		"/>
</g>
<path style="fill:none;stroke:#A7A9AC;stroke-width:2.3744;stroke-linecap:round;stroke-miterlimit:10;" d="M21.77,21.991
	l1.187,1.088l6.925,1.979c0,0,1.88-1.682,4.056-0.099c1.814,1.319,6.431-1.88,6.431-1.88l1.484-1.385"/>
<g>
	<g>
		<path style="fill:#FFFFFF;" d="M37.575,28.764c-1.95,0-3.536-1.586-3.536-3.535s1.586-3.535,3.536-3.535
			c1.949,0,3.535,1.586,3.535,3.535S39.524,28.764,37.575,28.764z"/>
		<path style="fill:#A7A9AC;" d="M37.574,22.288c1.625,0,2.942,1.317,2.942,2.942c0,1.625-1.317,2.942-2.942,2.942
			s-2.942-1.317-2.942-2.942C34.633,23.605,35.95,22.288,37.574,22.288 M37.574,21.1c-2.277,0-4.129,1.852-4.129,4.129
			s1.852,4.129,4.129,4.129s4.129-1.852,4.129-4.129S39.851,21.1,37.574,21.1L37.574,21.1z"/>
	</g>
</g>
<g>
	<g>
		<g>
			<path style="fill:#FFFFFF;" d="M26.31,28.764c-1.949,0-3.535-1.586-3.535-3.535s1.586-3.535,3.535-3.535s3.535,1.586,3.535,3.535
				S28.259,28.764,26.31,28.764z"/>
			<path style="fill:#A7A9AC;" d="M26.31,22.288c1.625,0,2.942,1.317,2.942,2.942c0,1.625-1.317,2.942-2.942,2.942
				c-1.625,0-2.942-1.317-2.942-2.942C23.369,23.605,24.686,22.288,26.31,22.288 M26.31,21.1c-2.277,0-4.129,1.852-4.129,4.129
				s1.852,4.129,4.129,4.129s4.129-1.852,4.129-4.129S28.587,21.1,26.31,21.1L26.31,21.1z"/>
		</g>
	</g>
</g>
<g>
	<g>
		<g>
			<circle style="fill:#A7A9AC;" cx="26.31" cy="25.229" r="1.93"/>
			<path style="fill:#FFFFFF;" d="M26.31,23.623c0.887,0,1.606,0.719,1.606,1.606c0,0.887-0.719,1.606-1.606,1.606
				c-0.887,0-1.606-0.719-1.606-1.606C24.704,24.342,25.423,23.623,26.31,23.623 M26.31,22.975c-1.243,0-2.254,1.011-2.254,2.254
				c0,1.243,1.011,2.254,2.254,2.254c1.243,0,2.254-1.011,2.254-2.254C28.564,23.986,27.553,22.975,26.31,22.975L26.31,22.975z"/>
		</g>
	</g>
</g>
<g>
	<g>
		<g>
			<path style="fill:#A7A9AC;" d="M37.649,27.159c-1.064,0-1.931-0.866-1.931-1.93s0.866-1.93,1.931-1.93
				c1.063,0,1.93,0.866,1.93,1.93S38.712,27.159,37.649,27.159z"/>
			<path style="fill:#FFFFFF;" d="M37.649,23.623c0.887,0,1.606,0.719,1.606,1.606c0,0.887-0.719,1.606-1.606,1.606
				s-1.606-0.719-1.606-1.606C36.043,24.342,36.762,23.623,37.649,23.623 M37.649,22.975c-1.243,0-2.254,1.011-2.254,2.254
				c0,1.243,1.011,2.254,2.254,2.254c1.243,0,2.254-1.011,2.254-2.254C39.903,23.986,38.892,22.975,37.649,22.975L37.649,22.975z"/>
		</g>
	</g>
</g>
<g>
	<g>
		<path style="fill:#A7A9AC;" d="M24.508,34.315c4.548,4.205,11.012,4.904,15.141-0.209c0.996-1.233-1.087-2.311-1.945-1.248
			c-3.148,3.898-7.742,3.314-11.192,0.124C25.542,32.086,23.402,33.293,24.508,34.315L24.508,34.315z"/>
	</g>
</g>
</svg>
