<svg id="icons" xmlns="http://www.w3.org/2000/svg" viewBox="0 0 90.04 101.5">
  <defs>
    <style>
      .cls-1 {
        fill: #fff;
      }

      .cls-2 {
        fill: #00aeef;
      }

      .cls-3 {
        fill: none;
        stroke: #16ace3;
        stroke-linecap: round;
        stroke-linejoin: round;
        stroke-width: 1.5px;
      }
    </style>
  </defs>
  <title>avatar-05</title>
  <path class="cls-1" d="M1281.94,90.7l37.75,21.79a8.08,8.08,0,0,0,7.27,0l37.75-21.79a8.07,8.07,0,0,0,3.63-6.3V40.82a8.06,8.06,0,0,0-3.63-6.3L1327,12.73a8,8,0,0,0-7.27,0l-37.75,21.79a8.06,8.06,0,0,0-3.64,6.3V84.4A8.07,8.07,0,0,0,1281.94,90.7Z" transform="translate(-1278.3 -11.86)"/>
  <path class="cls-2" d="M1297.2,57.66s-2.18,1.9-1.59-3.08a7.2,7.2,0,0,1,4.9-6.16S1299.78,55.41,1297.2,57.66Z" transform="translate(-1278.3 -11.86)"/>
  <line class="cls-3" x1="50.94" y1="52.66" x2="63.21" y2="57.9"/>
  <line class="cls-3" x1="30.41" y1="40.54" x2="42.68" y2="45.78"/>
  <path class="cls-3" d="M1348.11,71.6c3.48,1.5,6.94,2.86,7.41,3,1.13,0.34,1.68,1.85,1.22,3.36s-1.75,2.46-2.88,2.11c-0.62-.19-4.39-1.8-7.68-3.22" transform="translate(-1278.3 -11.86)"/>
  <path class="cls-3" d="M1351.69,73.1c1.1,0.34,1.64,1.84,1.19,3.34s-1.71,2.44-2.81,2.1" transform="translate(-1278.3 -11.86)"/>
  <path class="cls-3" d="M1323.93,58.63s20.19,8.77,21.56,9.19c1.92,0.58,2.73,4.18,1.95,6.74s-4,5-5.94,4.41-21.78-9.26-21.78-9.26" transform="translate(-1278.3 -11.86)"/>
  <path class="cls-3" d="M1299.53,44.38s21.91,10.06,23.28,10.48c1.92,0.58,1,6.29.07,9.33s-5,7.28-7,6.7-23.65-10.63-23.65-10.63" transform="translate(-1278.3 -11.86)"/>
  <path class="cls-3" d="M1295.19,59.53a24.8,24.8,0,0,1,1.06-6.24,13.2,13.2,0,0,1,4.4-5.82" transform="translate(-1278.3 -11.86)"/>
  <path class="cls-3" d="M1304.3,46.53c1.92,0.58,1,6.29.07,9.33s-5,7.28-7,6.7" transform="translate(-1278.3 -11.86)"/>
  <path class="cls-3" d="M1299.6,53.71c-0.92,3-5,7.28-7,6.7s-0.92-5.78,0-8.82,5-7.8,6.89-7.21S1300.52,50.67,1299.6,53.71Z" transform="translate(-1278.3 -11.86)"/>
  <line class="cls-3" x1="56.82" y1="23.37" x2="56.82" y2="37.42"/>
  <line class="cls-3" x1="63.85" y1="30.4" x2="49.8" y2="30.4"/>
  <line class="cls-3" x1="26.51" y1="64.84" x2="26.51" y2="73.43"/>
  <line class="cls-3" x1="30.8" y1="69.13" x2="22.21" y2="69.13"/>
  <line class="cls-3" x1="52.17" y1="77.21" x2="52.17" y2="82.19"/>
  <line class="cls-3" x1="54.66" y1="79.7" x2="49.68" y2="79.7"/>
</svg>
