<svg id="icons" xmlns="http://www.w3.org/2000/svg" viewBox="0 0 90.15 101.5">
  <defs>
    <style>
      .cls-1 {
        fill: #fff;
      }

      .cls-2, .cls-3 {
        fill: none;
      }

      .cls-2, .cls-3, .cls-4, .cls-5 {
        stroke: #00aeef;
        stroke-width: 1.5px;
      }

      .cls-2, .cls-4 {
        stroke-miterlimit: 10;
      }

      .cls-3, .cls-5 {
        stroke-linecap: round;
        stroke-linejoin: round;
      }

      .cls-4, .cls-5 {
        fill: #00aeef;
      }
    </style>
  </defs>
  <title>avatar-03</title>
  <path class="cls-1" d="M1065.86,90.7l37.75,21.79a8.08,8.08,0,0,0,7.27,0l37.75-21.79a8.07,8.07,0,0,0,3.63-6.3V40.82a8.06,8.06,0,0,0-3.63-6.3l-37.75-21.79a8,8,0,0,0-7.27,0l-37.75,21.79a8.06,8.06,0,0,0-3.64,6.3V84.4A8.07,8.07,0,0,0,1065.86,90.7Z" transform="translate(-1062.12 -11.86)"/>
  <path class="cls-2" d="M1080.44,97.57V88.81a27.31,27.31,0,0,1,54.62,0v8.37" transform="translate(-1062.12 -11.86)"/>
  <path class="cls-2" d="M1109.09,40.38a9.75,9.75,0,0,1,6,9V62.6" transform="translate(-1062.12 -11.86)"/>
  <circle class="cls-2" cx="34.24" cy="27.76" r="12.48"/>
  <path class="cls-2" d="M1085.62,46.4a15.65,15.65,0,0,1,21.51,0" transform="translate(-1062.12 -11.86)"/>
  <path class="cls-3" d="M1091.57,46.82a12.21,12.21,0,0,1,9.95.16" transform="translate(-1062.12 -11.86)"/>
  <path class="cls-2" d="M1130.59,72.72a33.23,33.23,0,0,1-45.67-.1" transform="translate(-1062.12 -11.86)"/>
  <path class="cls-2" d="M1127.15,70.59a28.23,28.23,0,0,1-38.8-.08" transform="translate(-1062.12 -11.86)"/>
  <path class="cls-3" d="M1093.62,90.57a5.69,5.69,0,0,1-7.83,0" transform="translate(-1062.12 -11.86)"/>
  <path class="cls-3" d="M1129.73,90.57a5.69,5.69,0,0,1-7.83,0" transform="translate(-1062.12 -11.86)"/>
  <path class="cls-4" d="M1092.71,42a4.74,4.74,0,1,1,7.14.17" transform="translate(-1062.12 -11.86)"/>
  <circle class="cls-5" cx="41.06" cy="90.84" r="0.97"/>
  <circle class="cls-5" cx="48.36" cy="90.84" r="0.97"/>
  <line class="cls-3" x1="84.54" y1="22.61" x2="69.13" y2="32.15"/>
  <line class="cls-3" x1="17.51" y1="44.86" x2="2.11" y2="54.41"/>
  <line class="cls-3" x1="26.55" y1="46.29" x2="11.14" y2="55.84"/>
  <line class="cls-3" x1="17.51" y1="37.04" x2="2.11" y2="46.58"/>
  <line class="cls-3" x1="78.76" y1="33.12" x2="63.36" y2="42.67"/>
  <line class="cls-3" x1="88.36" y1="35.32" x2="72.95" y2="44.86"/>
  <path class="cls-1" d="M1107.14,13.86a5.44,5.44,0,0,1,2.63.6l37.75,21.79a6.11,6.11,0,0,1,2.63,4.56V84.4a6.12,6.12,0,0,1-2.63,4.56l-37.75,21.79a6.12,6.12,0,0,1-5.27,0L1066.75,89a6.12,6.12,0,0,1-2.64-4.57V40.82a6.11,6.11,0,0,1,2.64-4.56l37.75-21.8a5.45,5.45,0,0,1,2.63-.6m0-2a7.42,7.42,0,0,0-3.64.87l-37.75,21.79a8.06,8.06,0,0,0-3.64,6.3V84.4a8.07,8.07,0,0,0,3.64,6.3l37.75,21.79a8.08,8.08,0,0,0,7.27,0l37.75-21.79a8.07,8.07,0,0,0,3.63-6.3V40.82a8.06,8.06,0,0,0-3.63-6.3l-37.75-21.79a7.41,7.41,0,0,0-3.63-.87h0Z" transform="translate(-1062.12 -11.86)"/>
</svg>
