<svg id="icons" xmlns="http://www.w3.org/2000/svg" viewBox="0 0 90.04 101.5">
  <defs>
    <style>
      .cls-1 {
        fill: #fff;
      }

      .cls-2, .cls-3, .cls-4 {
        fill: #00aeef;
      }

      .cls-2 {
        opacity: 0.5;
      }

      .cls-3 {
        opacity: 0.15;
      }
    </style>
  </defs>
  <title>avatar-17</title>
  <path class="cls-1" d="M904,379.1l37.75,21.79a8.08,8.08,0,0,0,7.27,0l37.75-21.79a8.07,8.07,0,0,0,3.63-6.3V329.22a8.06,8.06,0,0,0-3.63-6.3L949,301.13a8,8,0,0,0-7.27,0L904,322.92a8.06,8.06,0,0,0-3.64,6.3V372.8A8.07,8.07,0,0,0,904,379.1Z" transform="translate(-900.37 -300.26)"/>
  <polygon class="cls-2" points="63.29 75.81 63.29 72.15 61.05 72.15 59.64 72.15 52.34 72.15 52.34 75.81 52.34 77.64 52.34 79.48 54.98 79.48 55.98 79.48 66.94 79.48 66.94 75.81 63.29 75.81"/>
  <polygon class="cls-2" points="37.7 72.15 35.88 72.15 34.06 72.15 26.75 72.15 26.75 75.81 26.74 75.81 25.7 75.81 23.1 75.81 23.1 79.48 25.7 79.48 26.74 79.48 37.7 79.48 37.7 75.82 37.7 75.82 37.7 72.15"/>
  <polygon class="cls-3" points="34.05 61.2 30.41 61.2 30.41 57.56 19.44 57.56 19.44 68.52 30.41 68.52 30.41 64.87 34.05 64.87 34.05 61.2"/>
  <polygon class="cls-2" points="37.7 46.59 35.1 46.59 34.06 46.59 26.75 46.59 26.75 50.24 26.74 50.24 25.12 50.24 23.1 50.24 23.1 53.89 23.09 53.89 21.37 53.89 19.44 53.89 19.44 57.56 21.37 57.56 23.09 57.56 30.41 57.56 30.41 61.22 34.05 61.22 34.05 57.56 37.7 57.56 37.7 55.73 37.7 53.89 37.7 50.26 37.7 50.26 37.7 46.59"/>
  <polygon class="cls-3" points="63.29 57.55 60.37 57.55 59.64 57.55 59.64 61.2 55.99 61.2 55.99 64.87 59.64 64.87 59.64 68.52 60.37 68.52 63.29 68.52 70.6 68.52 70.6 64.87 70.6 64.85 70.6 61.22 70.6 61.2 70.6 57.55 63.29 57.55"/>
  <rect class="cls-4" x="37.72" y="50.24" width="3.64" height="3.67"/>
  <polygon class="cls-2" points="70.6 53.89 66.94 53.89 66.94 50.24 52.34 50.24 52.34 53.89 52.32 53.89 52.32 57.56 55.99 57.56 55.99 61.22 59.63 61.22 59.63 57.56 70.6 57.56 70.6 53.89"/>
  <polygon class="cls-4" points="55.99 64.85 55.98 64.85 55.98 57.55 52.34 57.55 52.34 61.2 48.67 61.2 48.67 57.56 52.32 57.56 52.32 55.9 52.32 53.89 52.32 50.24 48.68 50.24 48.68 53.89 48.67 53.89 45.01 53.89 43.43 53.89 41.37 53.89 41.36 53.89 41.36 46.59 37.72 46.59 37.72 53.89 37.72 55.73 37.72 57.56 41.37 57.56 41.37 61.2 37.7 61.2 37.7 57.55 34.06 57.55 34.06 61.2 34.06 63.04 34.06 64.85 30.41 64.85 30.41 72.17 41.36 72.17 41.36 68.52 48.68 68.52 48.68 72.17 50.76 72.17 52.32 72.17 59.63 72.17 59.63 68.52 59.63 65.91 59.63 64.85 55.99 64.85"/>
  <polygon class="cls-2" points="48.68 46.59 47.49 46.59 41.37 46.59 41.37 50.24 41.37 50.26 41.37 53.91 48.68 53.91 48.68 50.26 52.32 50.26 52.32 46.59 48.68 46.59"/>
  <polygon class="cls-2" points="30.4 39.28 30.4 31.98 26.75 31.98 26.75 39.28 26.75 40.52 26.75 42.95 29.3 42.95 30.4 42.95 34.05 42.95 34.05 39.28 30.4 39.28"/>
  <polygon class="cls-2" points="60.42 39.28 59.64 39.28 55.98 39.28 55.98 35.63 52.34 35.63 52.34 39.28 48.68 39.28 48.68 42.95 59.64 42.95 60.42 42.95 63.29 42.95 63.29 39.28 60.42 39.28"/>
  <polygon class="cls-3" points="30.41 31.98 30.41 35.63 30.41 36.81 30.41 39.3 34.05 39.3 34.05 36.81 34.05 35.63 34.05 31.98 30.41 31.98"/>
  <polygon class="cls-2" points="37.7 32 41.36 32 41.36 28.33 34.05 28.33 33.45 28.33 30.41 28.33 30.41 32 33.45 32 34.05 32 34.06 32 34.06 34.28 34.06 35.65 34.06 39.3 36.99 39.3 37.7 39.3 41.36 39.3 41.36 35.63 37.7 35.63 37.7 34.28 37.7 32"/>
  <polygon class="cls-2" points="48.68 28.33 48.68 30.72 48.68 32 48.68 35.65 52.32 35.65 52.32 32 52.32 30.72 52.32 28.33 48.68 28.33"/>
  <polygon class="cls-4" points="52.32 24.67 52.32 21.02 37.7 21.02 35.37 21.02 34.06 21.02 34.06 24.67 34.05 24.67 33.31 24.67 30.41 24.67 30.41 28.34 33.31 28.34 34.05 28.34 63.29 28.34 63.29 24.67 52.32 24.67"/>
  <polygon class="cls-3" points="63.29 35.63 63.29 31.98 55.98 31.98 55.98 28.33 52.34 28.33 52.34 31.98 52.34 33.47 52.34 35.65 54.53 35.65 55.98 35.65 55.99 35.65 55.99 39.3 57.53 39.3 59.63 39.3 66.94 39.3 66.94 35.63 63.29 35.63"/>
  <polygon class="cls-3" points="48.67 42.94 48.67 39.3 52.32 39.3 52.32 35.63 48.67 35.63 48.67 32 48.67 32 48.67 28.33 45.01 28.33 43.57 28.33 41.37 28.33 41.37 31.98 41.36 31.98 39.69 31.98 37.72 31.98 37.72 35.65 39.69 35.65 41.36 35.65 41.37 35.65 41.37 39.28 37.7 39.28 36.55 39.28 34.06 39.28 34.06 42.94 34.06 42.95 34.06 46.61 35.03 46.61 37.7 46.61 59.63 46.61 59.63 42.94 48.67 42.94"/>
  <rect class="cls-3" x="938.07" y="357.82" width="3.67" height="3.63" transform="translate(-320.1 999.28) rotate(-90)"/>
  <rect class="cls-3" x="949.03" y="357.82" width="3.67" height="3.63" transform="translate(-309.14 1010.25) rotate(-90)"/>
</svg>
