<svg id="icons" xmlns="http://www.w3.org/2000/svg" viewBox="0 0 90.04 101.5">
  <defs>
    <style>
      .cls-1, .cls-2, .cls-6 {
        fill: #fff;
      }

      .cls-2, .cls-3, .cls-4, .cls-5 {
        stroke: #00aeef;
      }

      .cls-2, .cls-4, .cls-5 {
        stroke-linecap: round;
        stroke-linejoin: round;
        stroke-width: 1.5px;
      }

      .cls-3, .cls-4 {
        fill: #00aeef;
      }

      .cls-3, .cls-6 {
        stroke-miterlimit: 10;
        stroke-width: 0.4px;
      }

      .cls-5 {
        fill: none;
      }

      .cls-6 {
        stroke: #fff;
      }
    </style>
  </defs>
  <title>avatar-10</title>
  <path class="cls-1" d="M1227.92,187.09l37.75,21.79a8.08,8.08,0,0,0,7.27,0l37.75-21.79a8.07,8.07,0,0,0,3.63-6.3V137.21a8.06,8.06,0,0,0-3.63-6.3l-37.75-21.79a8,8,0,0,0-7.27,0l-37.75,21.79a8.06,8.06,0,0,0-3.64,6.3v43.59A8.07,8.07,0,0,0,1227.92,187.09Z" transform="translate(-1224.28 -108.25)"/>
  <polyline class="cls-2" points="48.39 83.78 34.17 15.22 29.36 16.21 43.59 84.78"/>
  <g>
    <path class="cls-3" d="M1280.69,160.15a2.88,2.88,0,0,1,3,2.91,2.83,2.83,0,0,1-3,2.86h-2.5v-5.78h2.46Zm0,4.92a1.94,1.94,0,0,0,2-2,2,2,0,0,0-2-2.06h-1.54v4.06h1.58Z" transform="translate(-1224.28 -108.25)"/>
    <path class="cls-3" d="M1288.31,160a3,3,0,1,1-3,3A3,3,0,0,1,1288.31,160Zm0,5.11a2.11,2.11,0,1,0-2.06-2.11A2,2,0,0,0,1288.31,165.14Z" transform="translate(-1224.28 -108.25)"/>
    <path class="cls-3" d="M1298,160.15v5.78h-0.86l-2.11-2.84c-0.51-.7-1-1.42-1-1.42h0s0,0.78,0,1.81v2.45h-0.92v-5.78H1294l2.12,2.85c0.41,0.56,1,1.37,1,1.37h0s0-.85,0-1.76v-2.46H1298Z" transform="translate(-1224.28 -108.25)"/>
    <path class="cls-3" d="M1300.9,161h-0.1a0.44,0.44,0,0,1-.4-0.45,0.48,0.48,0,0,1,.5-0.49,0.52,0.52,0,0,1,.49.57,2,2,0,0,1-.74,1.4h-0.36a1.58,1.58,0,0,0,.52-1Z" transform="translate(-1224.28 -108.25)"/>
    <path class="cls-3" d="M1307.74,160.15V161h-1.87v4.92H1305V161h-1.87v-0.86h4.65Z" transform="translate(-1224.28 -108.25)"/>
    <path class="cls-3" d="M1285.14,168.4a1.53,1.53,0,0,1,1.7,1.45A1.27,1.27,0,0,1,1286,171h0a1.54,1.54,0,0,1,1.22,1.43,1.71,1.71,0,0,1-2,1.72h-2.37V168.4h2.28Zm-0.18,2.35a0.87,0.87,0,0,0,1-.79,0.84,0.84,0,0,0-1-.78h-1.18v1.58H1285Zm0.19,2.65a1,1,0,0,0,1.09-1,1,1,0,0,0-1.11-1h-1.35v1.94h1.37Z" transform="translate(-1224.28 -108.25)"/>
    <path class="cls-3" d="M1293.08,173.32v0.86h-4V168.4h4v0.86H1290v1.5h2.44v0.81H1290v1.75h3.1Z" transform="translate(-1224.28 -108.25)"/>
    <path class="cls-3" d="M1301.64,172.87h-2.7l-0.54,1.31h-1l2.44-5.78h0.85l2.44,5.78h-1Zm-0.33-.8-0.74-1.81c-0.12-.31-0.26-0.75-0.27-0.75h0s-0.15.44-.27,0.75l-0.74,1.81h2Z" transform="translate(-1224.28 -108.25)"/>
    <path class="cls-3" d="M1283,176.65a2.88,2.88,0,0,1,3,2.91,2.83,2.83,0,0,1-3,2.86h-2.5v-5.78H1283Zm0,4.92a1.94,1.94,0,0,0,2-2,2,2,0,0,0-2-2.06h-1.54v4.06H1283Z" transform="translate(-1224.28 -108.25)"/>
    <path class="cls-3" d="M1287.76,182.43v-5.78h0.92v5.78h-0.92Z" transform="translate(-1224.28 -108.25)"/>
    <path class="cls-3" d="M1295.2,178.3a2,2,0,0,0-1.69-.87,2.1,2.1,0,0,0,0,4.2,2,2,0,0,0,1.8-1l0.92,0.25a3,3,0,1,1-2.72-4.33,3,3,0,0,1,2.63,1.52Z" transform="translate(-1224.28 -108.25)"/>
    <path class="cls-3" d="M1301.64,182.43l-2-2.78-0.78.79v2h-0.92v-5.78h0.92V178c0,0.93,0,1.34,0,1.34h0l0.9-.92,1.78-1.77h1.11L1300.2,179l2.52,3.38h-1.07Z" transform="translate(-1224.28 -108.25)"/>
    <path class="cls-3" d="M1304.16,182a0.49,0.49,0,1,1,.49.5A0.49,0.49,0,0,1,1304.16,182Z" transform="translate(-1224.28 -108.25)"/>
  </g>
  <g>
    <path class="cls-1" d="M1274.82,193.82a1.7,1.7,0,0,1-1.32,2l-4.88,1a1.7,1.7,0,0,1-2-1.32l-0.1-.48a1.7,1.7,0,0,1,1.32-2l0.88-.18,3.32-.69,0.68-.14a1.7,1.7,0,0,1,2,1.32Z" transform="translate(-1224.28 -108.25)"/>
    <path class="cls-2" d="M1272.71,192a1.7,1.7,0,0,1,2,1.32l0.1,0.48a1.7,1.7,0,0,1-1.32,2l-4.88,1a1.7,1.7,0,0,1-2-1.32l-0.1-.48a1.7,1.7,0,0,1,1.32-2" transform="translate(-1224.28 -108.25)"/>
  </g>
  <line class="cls-2" x1="41.63" y1="73.4" x2="45.31" y2="69.85"/>
  <line class="cls-2" x1="42.33" y1="76.77" x2="46.01" y2="73.22"/>
  <line class="cls-2" x1="43.62" y1="84.77" x2="48.35" y2="83.79"/>
  <path class="cls-4" d="M1243,141.09a1.1,1.1,0,0,1,.3-0.93l13.14-11.89a1.07,1.07,0,0,1,.95-0.2l16.79,5.68a1.09,1.09,0,0,1,.65.74l3.64,17.57a1.09,1.09,0,0,1-.3.93L1265,164.88a1.07,1.07,0,0,1-.95.2l-16.79-5.69a1.09,1.09,0,0,1-.65-0.74Z" transform="translate(-1224.28 -108.25)"/>
  <line class="cls-5" x1="59.11" y1="33.63" x2="65.55" y2="32.29"/>
  <line class="cls-5" x1="58.13" y1="28.92" x2="62.31" y2="25.35"/>
  <line class="cls-5" x1="60" y1="37.93" x2="65.25" y2="39.55"/>
  <line class="cls-5" x1="12.83" y1="43.22" x2="6.39" y2="44.56"/>
  <line class="cls-5" x1="11.86" y1="38.52" x2="6.6" y2="36.9"/>
  <line class="cls-5" x1="13.72" y1="47.52" x2="9.55" y2="51.1"/>
  <g>
    <path class="cls-6" d="M1251.44,142.43a1.87,1.87,0,0,0-1.7-.47,1.95,1.95,0,0,0,.79,3.82,1.89,1.89,0,0,0,1.44-1.27l0.88,0.05a2.79,2.79,0,1,1-3.28-3.42,2.78,2.78,0,0,1,2.67.89Z" transform="translate(-1224.28 -108.25)"/>
    <path class="cls-6" d="M1256.24,139.76a2.79,2.79,0,1,1-2.16,3.29A2.74,2.74,0,0,1,1256.24,139.76Zm1,4.64a2,2,0,1,0-2.26-1.52A1.86,1.86,0,0,0,1257.21,144.4Z" transform="translate(-1224.28 -108.25)"/>
    <path class="cls-6" d="M1263.11,138.44a2.67,2.67,0,0,1,3.27,2.08,2.63,2.63,0,0,1-2.14,3.16l-2.27.47-1.09-5.25Zm1,4.46a1.8,1.8,0,0,0,1.44-2.2,1.84,1.84,0,0,0-2.25-1.48l-1.4.29,0.77,3.69Z" transform="translate(-1224.28 -108.25)"/>
    <path class="cls-6" d="M1272.29,141.2l0.16,0.78-3.65.76-1.09-5.25,3.61-.75,0.16,0.78-2.78.58,0.28,1.37,2.21-.46,0.15,0.73-2.21.46,0.33,1.59Z" transform="translate(-1224.28 -108.25)"/>
  </g>
  <g>
    <path class="cls-6" d="M1251.69,151.09a1.17,1.17,0,0,0-1.37-.67,0.85,0.85,0,0,0-.84.91c0.1,0.5.8,0.53,1.52,0.6s1.81,0.26,2,1.24a1.75,1.75,0,0,1-1.63,2A2.05,2.05,0,0,1,1249,154l0.75-.38a1.29,1.29,0,0,0,1.53.76,0.92,0.92,0,0,0,.89-1c-0.14-.65-1-0.62-1.77-0.71a1.67,1.67,0,0,1-1.74-1.12,1.71,1.71,0,0,1,1.56-1.86,1.94,1.94,0,0,1,2.23,1Z" transform="translate(-1224.28 -108.25)"/>
    <path class="cls-6" d="M1257.75,148.24l0.16,0.78-1.7.35,0.93,4.47-0.82.17-0.93-4.47-1.7.35-0.16-.78Z" transform="translate(-1224.28 -108.25)"/>
    <path class="cls-6" d="M1260.62,153.12l-1.09-5.25,0.83-.17,1.09,5.25Z" transform="translate(-1224.28 -108.25)"/>
    <path class="cls-6" d="M1266.84,147.92a1.93,1.93,0,1,0-.91,3.35,1.89,1.89,0,0,0,1.44-1.27l0.88,0.05a2.79,2.79,0,1,1-3.28-3.42,2.78,2.78,0,0,1,2.67.88Z" transform="translate(-1224.28 -108.25)"/>
    <path class="cls-6" d="M1273.71,150.41l-2.38-2.14-0.56.87,0.38,1.81-0.83.17-1.09-5.25,0.83-.17,0.25,1.22c0.18,0.85.23,1.22,0.24,1.22h0s0.29-.46.64-1l1.28-1.94,1-.21-1.72,2.63,2.93,2.6Z" transform="translate(-1224.28 -108.25)"/>
  </g>
</svg>
