<svg id="icons" xmlns="http://www.w3.org/2000/svg" viewBox="0 0 90.04 101.5">
  <defs>
    <style>
      .cls-1 {
        fill: #fff;
      }

      .cls-2 {
        fill: #00aeef;
      }
    </style>
  </defs>
  <title>avatar-20</title>
  <path class="cls-1" d="M1227.66,379.1l37.75,21.79a8.08,8.08,0,0,0,7.27,0l37.75-21.79a8.07,8.07,0,0,0,3.63-6.3V329.22a8.06,8.06,0,0,0-3.63-6.3l-37.75-21.79a8,8,0,0,0-7.27,0l-37.75,21.79a8.06,8.06,0,0,0-3.64,6.3V372.8A8.07,8.07,0,0,0,1227.66,379.1Z" transform="translate(-1224.03 -300.26)"/>
  <g>
    <path class="cls-2" d="M1248.45,346.68v3.39h6.36v3.74h-6.36v6.31h-4.16V342.79h12.35v3.89h-8.19Z" transform="translate(-1224.03 -300.26)"/>
    <path class="cls-2" d="M1267,342.79c4.26,0,6.83,2.23,6.83,5.94s-2.57,5.94-6.83,5.94h-2.45v5.45h-4.16V342.79H1267Zm-0.07,8c1.61,0,2.57-.77,2.57-2.05s-1-2.05-2.57-2.05h-2.38v4.11H1267Z" transform="translate(-1224.03 -300.26)"/>
    <path class="cls-2" d="M1285.46,342.45a9,9,0,1,1-9,9A8.86,8.86,0,0,1,1285.46,342.45Zm0,13.91a4.54,4.54,0,0,0,4.68-4.9c0-2.92-1.86-4.9-4.68-4.9s-4.65,2-4.65,4.9S1282.66,356.36,1285.46,356.36Z" transform="translate(-1224.03 -300.26)"/>
  </g>
</svg>
