<svg id="icons" xmlns="http://www.w3.org/2000/svg" viewBox="0 0 90.04 101.5">
  <defs>
    <style>
      .cls-1 {
        fill: #fff;
      }

      .cls-2 {
        fill: #00aeef;
      }
    </style>
  </defs>
  <title>avatar-13</title>
  <path class="cls-1" d="M1065.84,282.55l37.75,21.79a8.08,8.08,0,0,0,7.27,0l37.75-21.79a8.07,8.07,0,0,0,3.63-6.3V232.66a8.06,8.06,0,0,0-3.63-6.3l-37.75-21.79a8,8,0,0,0-7.27,0l-37.75,21.79a8.06,8.06,0,0,0-3.64,6.3v43.59A8.07,8.07,0,0,0,1065.84,282.55Z" transform="translate(-1062.2 -203.7)"/>
  <path class="cls-2" d="M1107.44,236.06s-0.66-10.65,11.11-12.73C1118.54,223.33,1118.95,235.51,1107.44,236.06Z" transform="translate(-1062.2 -203.7)"/>
  <path class="cls-2" d="M1123,261.08a12.08,12.08,0,0,1,5.23-11.41,3.61,3.61,0,0,0-1.37-1.63L1109.43,238a3.71,3.71,0,0,0-3.36,0L1088.64,248a3.72,3.72,0,0,0-1.68,2.91v20.14a3.73,3.73,0,0,0,1.68,2.91l17.44,10.07a3.73,3.73,0,0,0,3.36,0L1126.87,274a3.73,3.73,0,0,0,1.68-2.91v-1A11.33,11.33,0,0,1,1123,261.08Z" transform="translate(-1062.2 -203.7)"/>
</svg>
