<svg id="icons" xmlns="http://www.w3.org/2000/svg" viewBox="0 0 90.04 101.5">
  <defs>
    <style>
      .cls-1 {
        fill: #fff;
      }

      .cls-2 {
        fill: none;
        stroke: #00aeef;
        stroke-linecap: round;
        stroke-linejoin: round;
        stroke-width: 1.5px;
      }

      .cls-3 {
        fill: #00aeef;
      }
    </style>
  </defs>
  <title>avatar-11</title>
  <path class="cls-1" d="M849.55,282.55l37.75,21.79a8.08,8.08,0,0,0,7.27,0l37.75-21.79a8.07,8.07,0,0,0,3.63-6.3V232.66a8.06,8.06,0,0,0-3.63-6.3l-37.75-21.79a8,8,0,0,0-7.27,0l-37.75,21.79a8.06,8.06,0,0,0-3.64,6.3v43.59A8.07,8.07,0,0,0,849.55,282.55Z" transform="translate(-845.92 -203.7)"/>
  <path class="cls-2" d="M875.14,269.94h0a24.28,24.28,0,0,1-8.43-18.37h0A24.38,24.38,0,0,1,891,227.25h0a24.38,24.38,0,0,1,24.31,24.31h0A24.27,24.27,0,0,1,907,269.79l0,10.51a3.1,3.1,0,0,1-3.09,3.09H878.28a3.1,3.1,0,0,1-3.09-3.09Z" transform="translate(-845.92 -203.7)"/>
  <path class="cls-3" d="M895.61,255.83l5.71,3.3a1.22,1.22,0,0,0,1.1,0l5.71-3.3a1.22,1.22,0,0,0,.55-1v-6.6a1.22,1.22,0,0,0-.55-1l-5.71-3.3a1.22,1.22,0,0,0-1.1,0l-5.71,3.3a1.22,1.22,0,0,0-.55,1v6.6A1.22,1.22,0,0,0,895.61,255.83Z" transform="translate(-845.92 -203.7)"/>
  <line class="cls-2" x1="37.49" y1="67.8" x2="37.49" y2="79.69"/>
  <line class="cls-2" x1="45.13" y1="67.8" x2="45.13" y2="79.69"/>
  <line class="cls-2" x1="52.63" y1="67.8" x2="52.63" y2="79.69"/>
  <path class="cls-3" d="M873.53,256l5.71,3.3a1.22,1.22,0,0,0,1.1,0l5.71-3.3a1.22,1.22,0,0,0,.55-1v-6.6a1.22,1.22,0,0,0-.55-1l-5.71-3.3a1.22,1.22,0,0,0-1.1,0l-5.71,3.3a1.22,1.22,0,0,0-.55,1V255A1.22,1.22,0,0,0,873.53,256Z" transform="translate(-845.92 -203.7)"/>
</svg>
