<svg id="icons" xmlns="http://www.w3.org/2000/svg" viewBox="0 0 90.88 102.45">
  <defs>
    <style>
      .cls-1, .cls-4 {
        fill: #fff;
      }

      .cls-2 {
        fill: none;
      }

      .cls-2, .cls-4, .cls-5 {
        stroke: #00aeef;
        stroke-linecap: round;
        stroke-linejoin: round;
        stroke-width: 1.5px;
      }

      .cls-3, .cls-5 {
        fill: #00aeef;
      }
    </style>
  </defs>
  <title>avatar-23</title>
  <path class="cls-1" d="M1282.28,667.1L1320,688.89a8.08,8.08,0,0,0,7.27,0L1365,667.1a8.07,8.07,0,0,0,3.63-6.3V617.22a8.06,8.06,0,0,0-3.63-6.3l-37.75-21.79a8,8,0,0,0-7.27,0l-37.75,21.79a8.06,8.06,0,0,0-3.64,6.3V660.8A8.07,8.07,0,0,0,1282.28,667.1Z" transform="translate(-1278.34 -587.69)"/>
  <path class="cls-2" d="M1320.69,646l-15.7,8.29c-6.43,3.53-8.49,6.35-5.62,12,1.32,2.6,2.38,7.77,7.71,4.94,2.75,7.58,11.88-2.54,16.53-2.2s12.69,0,16.72-3.45c2.39-2.07,2.85-7.06.66-9.5" transform="translate(-1278.34 -587.69)"/>
  <path class="cls-2" d="M1331.56,659.18l-5.83.75s-2,.46-2.12-1.39" transform="translate(-1278.34 -587.69)"/>
  <g>
    <path class="cls-3" d="M1286.56,624.36V626h3.08v1.81h-3.08v3.06h-2v-8.4h6v1.88h-4Z" transform="translate(-1278.34 -587.69)"/>
    <path class="cls-3" d="M1296.2,629.55h-3.32l-0.48,1.32h-2.17l3.36-8.4h1.91l3.36,8.4h-2.17Zm-0.65-1.76-0.6-1.63c-0.18-.48-0.4-1.24-0.41-1.24h0s-0.23.76-.41,1.24l-0.6,1.63h2Z" transform="translate(-1278.34 -587.69)"/>
    <path class="cls-3" d="M1303.68,622.48a2.34,2.34,0,0,1,2.54,2.22,1.81,1.81,0,0,1-1,1.64h0a2.19,2.19,0,0,1,1.48,2c0,1.4-.92,2.54-3,2.54H1300v-8.4h3.65Zm-0.42,3.27a0.8,0.8,0,1,0,0-1.58H1302v1.58h1.21Zm0.19,3.43a1,1,0,1,0,0-1.89H1302v1.89h1.4Z" transform="translate(-1278.34 -587.69)"/>
    <path class="cls-3" d="M1315.69,622.48v4.67c0,2.52-1.49,3.9-3.71,3.9s-3.71-1.38-3.71-3.9v-4.67h2v4.62c0,1.44.59,2.06,1.69,2.06s1.69-.62,1.69-2.06v-4.62h2Z" transform="translate(-1278.34 -587.69)"/>
    <path class="cls-3" d="M1337.79,629v1.88h-6v-8.4h2V629h4Z" transform="translate(-1278.34 -587.69)"/>
    <path class="cls-3" d="M1343.05,622.31a4.37,4.37,0,1,1-4.35,4.37A4.29,4.29,0,0,1,1343.05,622.31Zm0,6.74a2.38,2.38,0,1,0-2.25-2.37A2.2,2.2,0,0,0,1343.05,629Z" transform="translate(-1278.34 -587.69)"/>
    <path class="cls-3" d="M1356.51,622.48v4.67c0,2.52-1.49,3.9-3.71,3.9s-3.71-1.38-3.71-3.9v-4.67h2v4.62c0,1.44.59,2.06,1.69,2.06s1.69-.62,1.69-2.06v-4.62h2Z" transform="translate(-1278.34 -587.69)"/>
    <path class="cls-3" d="M1362.83,625.14a1.47,1.47,0,0,0-1.45-1.09,0.8,0.8,0,0,0-.95.64c0,0.55.84,0.76,1.86,1.13,1.25,0.46,2.55,1.16,2.55,2.6s-1.32,2.63-3.27,2.63a3.59,3.59,0,0,1-3.55-2.54l1.93-.52a1.82,1.82,0,0,0,1.7,1.27,0.86,0.86,0,0,0,1.05-.74c0-.67-1-0.84-2.18-1.3-1-.38-2.17-0.94-2.17-2.41,0-1.31,1.32-2.5,3.14-2.5a3.34,3.34,0,0,1,3.27,2.3Z" transform="translate(-1278.34 -587.69)"/>
  </g>
  <line class="cls-4" x1="36.27" y1="20.3" x2="31.43" y2="17.1"/>
  <line class="cls-2" x1="39.8" y1="16.2" x2="38.39" y2="10.02"/>
  <line class="cls-2" x1="45.33" y1="18.74" x2="49.14" y2="14.81"/>
  <path class="cls-4" d="M1323.92,645.53a9,9,0,0,1-15-5.57,9.1,9.1,0,0,1-.06-1l0.14,0.68a6.51,6.51,0,0,0,6.18,4.46" transform="translate(-1278.34 -587.69)"/>
  <path class="cls-4" d="M1322.92,640.59a3.78,3.78,0,1,1-2.73-6.49s0-.16-0.74-0.2a6.07,6.07,0,1,0,3.86,10.75" transform="translate(-1278.34 -587.69)"/>
  <path class="cls-4" d="M1362.62,653.8" transform="translate(-1278.34 -587.69)"/>
  <ellipse class="cls-5" cx="24.75" cy="73.89" rx="1.12" ry="1.19"/>
  <path class="cls-2" d="M1304.59,664.62a2.7,2.7,0,0,1-2.61-2.78" transform="translate(-1278.34 -587.69)"/>
  <line class="cls-2" x1="62.34" y1="59.11" x2="78.85" y2="82.7"/>
  <line class="cls-2" x1="49.97" y1="81.44" x2="52.41" y2="98.14"/>
  <line class="cls-2" x1="54.42" y1="84.93" x2="55.25" y2="91.49"/>
  <path class="cls-2" d="M1341.67,643.51a2.88,2.88,0,0,1,5.48,1.24v0.52a2.24,2.24,0,1,0,4.19-1.1l0.14,0.14a6,6,0,0,1-1.8,8.39" transform="translate(-1278.34 -587.69)"/>
  <path class="cls-4" d="M1352.09,649.77a6.07,6.07,0,0,1,11,.75c0.08,0.2.22,0.65,0.22,0.65a3.7,3.7,0,1,0-.06,5.13s2.27-3,4-3" transform="translate(-1278.34 -587.69)"/>
  <g>
    <path class="cls-2" d="M1294.93,641.28a6.43,6.43,0,0,1-6.43,6.43" transform="translate(-1278.34 -587.69)"/>
    <path class="cls-2" d="M1294.93,641.28a6.43,6.43,0,0,0,6.43,6.43" transform="translate(-1278.34 -587.69)"/>
    <path class="cls-2" d="M1294.93,654.21a6.43,6.43,0,0,1,6.43-6.43" transform="translate(-1278.34 -587.69)"/>
    <path class="cls-2" d="M1294.93,654.21a6.43,6.43,0,0,0-6.43-6.43" transform="translate(-1278.34 -587.69)"/>
  </g>
  <g>
    <path class="cls-2" d="M1301.37,610a3.83,3.83,0,0,1-3.83,3.83" transform="translate(-1278.34 -587.69)"/>
    <path class="cls-2" d="M1301.37,610a3.83,3.83,0,0,0,3.83,3.83" transform="translate(-1278.34 -587.69)"/>
    <path class="cls-2" d="M1301.37,617.71a3.83,3.83,0,0,1,3.83-3.83" transform="translate(-1278.34 -587.69)"/>
    <path class="cls-2" d="M1301.37,617.71a3.83,3.83,0,0,0-3.83-3.83" transform="translate(-1278.34 -587.69)"/>
  </g>
  <g>
    <path class="cls-2" d="M1344.86,610.83a3.83,3.83,0,0,1-3.83,3.83" transform="translate(-1278.34 -587.69)"/>
    <path class="cls-2" d="M1344.86,610.83a3.83,3.83,0,0,0,3.83,3.83" transform="translate(-1278.34 -587.69)"/>
    <path class="cls-2" d="M1344.86,618.53a3.83,3.83,0,0,1,3.83-3.83" transform="translate(-1278.34 -587.69)"/>
    <path class="cls-2" d="M1344.86,618.53a3.83,3.83,0,0,0-3.83-3.83" transform="translate(-1278.34 -587.69)"/>
  </g>
  <path class="cls-3" d="M1347.34,672.62a0.35,0.35,0,0,1-.16,0c-1.45-.65-3.6-2.47-3.66-4.38a2.54,2.54,0,0,1,.67-1.88,2.23,2.23,0,0,1,1.62-.68,2.26,2.26,0,0,0,3.07,0,2.23,2.23,0,0,1,1.62.68,2.54,2.54,0,0,1,.67,1.88c-0.07,1.91-2.22,3.74-3.67,4.38h0l-0.05,0h-0.08Z" transform="translate(-1278.34 -587.69)"/>
  <line class="cls-2" x1="53.22" y1="66.52" x2="44.66" y2="64.75"/>
  <path class="cls-2" d="M1307.08,671.25a19.27,19.27,0,0,0,6.3-3.5l0.56-1.75" transform="translate(-1278.34 -587.69)"/>
  <path class="cls-2" d="M1320,617.51a7.93,7.93,0,0,0,.64,6.13,4.68,4.68,0,0,0,3.94,3,10.93,10.93,0,0,0-2.15-7.72" transform="translate(-1278.34 -587.69)"/>
  <path class="cls-2" d="M1321.29,625a9.46,9.46,0,0,0,.69,7.33,5.59,5.59,0,0,0,4.66,3.66,13,13,0,0,0-2.47-9.24" transform="translate(-1278.34 -587.69)"/>
  <path class="cls-2" d="M1322.88,634.41c-1,4.58,1.78,11.62,1.78,11.62s1.58,2.76,4.54.08a14.68,14.68,0,0,0-2.89-10.37" transform="translate(-1278.34 -587.69)"/>
  <path class="cls-4" d="M1319.24,608.93l0.57,8.25a3.48,3.48,0,0,0,2.93,2.25Z" transform="translate(-1278.34 -587.69)"/>
  <path class="cls-4" d="M1333.17,643.83a3.91,3.91,0,1,1-2.49-6.93c0.49,0,.48.13,0.48,0.13a2.44,2.44,0,1,0,1.76,4.19s2.55-2.19,4.85-1.47" transform="translate(-1278.34 -587.69)"/>
  <path class="cls-2" d="M1336,645.16s0.66-2.24,5.87-5.16" transform="translate(-1278.34 -587.69)"/>
  <path class="cls-2" d="M1333.17,643.83a21.62,21.62,0,0,1,8.33-6s1.3,2.57-.82,9" transform="translate(-1278.34 -587.69)"/>
  <path class="cls-1" d="M1323.78,589.69a5.51,5.51,0,0,1,2.67.61l38.1,22a6.19,6.19,0,0,1,2.67,4.62v44a6.2,6.2,0,0,1-2.67,4.62l-38.1,22a6.2,6.2,0,0,1-5.34,0l-38.1-22a6.2,6.2,0,0,1-2.67-4.62v-44a6.18,6.18,0,0,1,2.67-4.62l38.11-22a5.52,5.52,0,0,1,2.67-.61m0-2a7.49,7.49,0,0,0-3.67.88l-38.1,22a8.13,8.13,0,0,0-3.67,6.35v44a8.15,8.15,0,0,0,3.67,6.36l38.1,22a8.15,8.15,0,0,0,7.34,0l38.1-22a8.15,8.15,0,0,0,3.67-6.36v-44a8.14,8.14,0,0,0-3.67-6.35l-38.1-22a7.49,7.49,0,0,0-3.67-.88h0Z" transform="translate(-1278.34 -587.69)"/>
</svg>
