<svg id="icons" xmlns="http://www.w3.org/2000/svg" viewBox="0 0 90.04 101.5">
  <defs>
    <style>
      .cls-1 {
        fill: #fff;
      }

      .cls-2 {
        fill: none;
        stroke: #00aeef;
        stroke-linecap: round;
        stroke-linejoin: round;
        stroke-width: 1.5px;
      }
    </style>
  </defs>
  <title>avatar-12</title>
  <path class="cls-1" d="M957.25,282.71L995,304.51a8.08,8.08,0,0,0,7.27,0L1040,282.71a8.07,8.07,0,0,0,3.63-6.3V232.83a8.06,8.06,0,0,0-3.63-6.3l-37.75-21.79a8,8,0,0,0-7.27,0l-37.75,21.79a8.06,8.06,0,0,0-3.64,6.3v43.59A8.07,8.07,0,0,0,957.25,282.71Z" transform="translate(-953.62 -203.87)"/>
  <g>
    <g>
      <path class="cls-2" d="M987.29,241.54h36.33a1.1,1.1,0,0,1,1,1.26l-1.07,15.77a1.7,1.7,0,0,1-1.41,1.69L994,262.45l-8.54-26.19-3.43-.06" transform="translate(-953.62 -203.87)"/>
      <path class="cls-2" d="M994,262.45s-3.15,4.22,1.29,6.29a2,2,0,0,0,.87.1l26.24,0" transform="translate(-953.62 -203.87)"/>
      <circle class="cls-2" cx="44.32" cy="70.06" r="2.02"/>
      <circle class="cls-2" cx="65.6" cy="70.06" r="2.02"/>
      <line class="cls-2" x1="38.25" y1="41.48" x2="67.49" y2="41.48"/>
      <line class="cls-2" x1="42.46" y1="54.34" x2="66.24" y2="52.84"/>
    </g>
    <line class="cls-2" x1="29.05" y1="49.8" x2="11.96" y2="49.8"/>
    <line class="cls-2" x1="26.7" y1="43.61" x2="15.2" y2="43.61"/>
    <line class="cls-2" x1="31.41" y1="56.09" x2="19.92" y2="56.09"/>
  </g>
</svg>
