<?xml version="1.0" encoding="utf-8"?>
<!-- Generator: Adobe Illustrator 17.0.2, SVG Export Plug-In . SVG Version: 6.00 Build 0)  -->
<!DOCTYPE svg PUBLIC "-//W3C//DTD SVG 1.1//EN" "http://www.w3.org/Graphics/SVG/1.1/DTD/svg11.dtd">
<svg version="1.1" id="Layer_1" xmlns="http://www.w3.org/2000/svg" xmlns:xlink="http://www.w3.org/1999/xlink" x="0px" y="0px"
	 width="235px" height="39.305px" viewBox="0 0 235 39.305" enable-background="new 0 0 235 39.305" xml:space="preserve">
<g>
	<g>
		<g>
			<path fill="#76BC43" d="M208.746,26.923v-8.957c0-0.474,0.336-1.057,0.746-1.294l1.566-0.904l-6.191-3.575
				c-0.411-0.237-1.083-0.237-1.494,0l-7.756,4.478c-0.411,0.237-0.747,0.819-0.747,1.294l-0.001,8.957
				c0,0.474,0.337,1.056,0.747,1.293l7.757,4.478c0.411,0.237,1.083,0.237,1.494,0l6.191-3.574l-1.566-0.904
				C209.081,27.979,208.746,27.397,208.746,26.923z"/>
			<path fill="#555759" d="M233.438,4.656l-7.757-4.478c-0.411-0.237-1.083-0.237-1.494,0l-7.756,4.478
				c-0.411,0.237-0.747,0.819-0.747,1.294v7.148l1.565-0.904c0.411-0.237,1.084-0.237,1.495,0l7.756,4.478
				c0.411,0.237,0.747,0.819,0.747,1.294v1.808l6.191-3.574c0.41-0.237,0.746-0.819,0.746-1.294V5.95
				C234.184,5.476,233.848,4.894,233.438,4.656z"/>
			<path fill="#00AEEF" d="M224.186,20.678L216.43,16.2c-0.411-0.237-0.747-0.819-0.747-1.294v-1.808l-4.625,2.67l1.566,0.904
				c0.41,0.237,0.746,0.819,0.746,1.294v8.957c0,0.474-0.336,1.056-0.747,1.293l-1.566,0.904l6.19,3.574
				c0.411,0.237,1.084,0.237,1.495,0l7.756-4.479c0.411-0.237,0.747-0.819,0.747-1.293v-7.149l-1.566,0.904
				C225.269,20.916,224.598,20.916,224.186,20.678z"/>
			<path fill="#009E4E" d="M213.371,26.923v-8.957c0-0.474-0.336-1.057-0.746-1.294l-1.566-0.904l-1.566,0.904
				c-0.41,0.237-0.746,0.819-0.746,1.294v8.957c0,0.474,0.336,1.056,0.746,1.293l1.566,0.904l1.566-0.904
				C213.034,27.979,213.371,27.397,213.371,26.923z"/>
			<path fill="#004F59" d="M226.499,16.673l-7.756-4.478c-0.411-0.237-1.084-0.237-1.495,0l-1.565,0.904v1.808
				c0,0.474,0.336,1.057,0.747,1.294l7.756,4.478c0.411,0.237,1.083,0.237,1.494,0l1.566-0.904v-1.808
				C227.246,17.492,226.91,16.91,226.499,16.673z"/>
		</g>
		<g>
			<path fill="#FFFFFF" d="M204.12,30.535c-0.013,0-0.027-0.003-0.04-0.011l-6.938-4.006c-0.038-0.022-0.052-0.07-0.029-0.109
				c0.022-0.039,0.071-0.052,0.109-0.029l6.898,3.983l6.858-3.96v-7.918l-6.858-3.959l-6.897,3.982
				c-0.039,0.022-0.087,0.009-0.109-0.029c-0.022-0.038-0.009-0.087,0.029-0.109l6.938-4.006c0.024-0.014,0.055-0.014,0.08,0
				l6.937,4.006c0.025,0.014,0.041,0.041,0.041,0.069v8.011c0,0.028-0.016,0.055-0.041,0.069l-6.937,4.006
				C204.148,30.532,204.134,30.535,204.12,30.535z"/>
			<path fill="#FFFFFF" d="M224.934,18.519c-0.013,0-0.028-0.003-0.04-0.011l-6.938-4.006c-0.025-0.014-0.041-0.041-0.041-0.069
				V6.423c0-0.029,0.016-0.055,0.041-0.07l6.938-4.005c0.038-0.022,0.087-0.009,0.109,0.03c0.022,0.038,0.009,0.087-0.029,0.109
				l-6.897,3.982v7.919l6.858,3.96l6.857-3.96V6.423c0-0.045,0.036-0.08,0.081-0.08c0.044,0,0.08,0.036,0.08,0.08v8.011
				c0,0.029-0.015,0.055-0.04,0.069l-6.938,4.006C224.961,18.516,224.948,18.519,224.934,18.519z"/>
			<path fill="#FFFFFF" d="M217.996,30.536c-0.013,0-0.028-0.004-0.04-0.011l-6.938-4.006c-0.025-0.013-0.04-0.04-0.04-0.069v-8.011
				c0-0.028,0.016-0.055,0.04-0.069l6.938-4.006c0.024-0.014,0.056-0.014,0.079,0l6.938,4.006c0.024,0.014,0.04,0.041,0.04,0.069
				v8.011c0,0.044-0.036,0.08-0.08,0.08c-0.044,0-0.079-0.036-0.079-0.08v-7.965l-6.858-3.959l-6.858,3.959v7.918l6.897,3.983
				c0.038,0.022,0.052,0.071,0.029,0.109C218.051,30.522,218.024,30.536,217.996,30.536z"/>
		</g>
	</g>
	<g>
		<path fill="#00AEEF" d="M0.995,31.085c-0.548-0.548-0.741-0.935-0.741-1.257c0-0.645,0.773-0.871,0.838-0.838
			c0.935,1.45,2.643,2.579,5.383,2.579c2.772,0,4.384-1.257,4.384-2.966c0-2.063-1.902-2.482-4.738-3.094
			c-2.482-0.516-5.415-1.128-5.415-4.126c0-2.611,2.289-4.416,5.705-4.416c2.385,0,4.029,0.774,4.932,1.676
			c0.355,0.354,0.58,0.806,0.58,1.128c0,0.612-0.774,0.902-0.838,0.806c-0.774-1.321-2.514-2.321-4.674-2.321
			c-2.643,0-4.223,1.225-4.223,2.901c0,1.934,1.805,2.385,4.577,2.998c2.611,0.548,5.609,1.193,5.609,4.223
			c0,2.643-2.288,4.48-5.963,4.48C3.702,32.858,1.929,32.02,0.995,31.085z"/>
		<path fill="#00AEEF" d="M20.272,31.891V10.842c0-0.032,0.226-0.161,0.516-0.161c0.548,0,1.031,0.29,1.031,1.515v8.091
			c0.902-1.966,2.901-3.32,5.415-3.32c4.094,0,6.157,2.708,6.157,6.801v8.123c0,0.58-0.29,0.742-0.677,0.742H32.52
			c-0.387,0-0.677-0.161-0.677-0.742v-8.026c0-3.384-1.676-5.447-4.706-5.447c-3.062,0-5.319,2.127-5.319,5.351v8.123
			c0,0.58-0.29,0.742-0.677,0.742h-0.193C20.562,32.632,20.272,32.471,20.272,31.891z"/>
		<path fill="#00AEEF" d="M41.192,24.896c0-4.545,3.223-7.93,7.801-7.93c4.513,0,7.768,3.417,7.768,7.994
			c0,4.513-3.256,7.897-7.768,7.897C44.416,32.858,41.192,29.441,41.192,24.896z M55.214,24.961c0-3.739-2.611-6.64-6.221-6.64
			c-3.61,0-6.253,2.836-6.253,6.576c0,3.739,2.643,6.608,6.253,6.608C52.571,31.504,55.214,28.7,55.214,24.961z"/>
		<path fill="#00AEEF" d="M64.692,38.016V17.353c0-0.032,0.226-0.161,0.516-0.161c0.548,0,0.999,0.29,0.999,1.547v1.676
			c1.225-2.063,3.191-3.449,6.06-3.449c4.061,0,7.253,3.191,7.253,7.897c0,4.738-3.094,7.994-7.349,7.994
			c-3.062,0-5.157-1.676-5.931-3.417v8.574c0,0.548-0.29,0.741-0.677,0.741h-0.161C64.983,38.757,64.692,38.563,64.692,38.016z
			 M77.973,24.864c0-3.771-2.514-6.544-5.867-6.544c-2.933,0-4.932,1.676-5.899,4.158v3.513c0,3.062,2.579,5.512,5.834,5.512
			C75.587,31.504,77.973,28.796,77.973,24.864z"/>
		<path fill="#76BC43" d="M88.386,28.119v-9.445h-1.87c-0.58,0-0.741-0.226-0.741-0.612v-0.161c0-0.387,0.161-0.613,0.741-0.613
			h1.87v-2.966c0-0.58,0.29-0.773,0.677-0.773h0.193c0.387,0,0.645,0.193,0.645,0.773v2.966h4.416c0.58,0,0.773,0.226,0.773,0.613
			v0.161c0,0.387-0.193,0.612-0.773,0.612h-4.416v9.283c0,2.514,0.741,3.578,2.546,3.578c1.128,0,1.934-0.516,2.482-1.322
			c0.065-0.032,0.516,0.161,0.516,0.774c0,0.258-0.129,0.612-0.516,0.967c-0.483,0.516-1.321,0.903-2.546,0.903
			C89.675,32.858,88.386,31.343,88.386,28.119z"/>
		<path fill="#76BC43" d="M100.732,24.896c0-4.545,3.223-7.93,7.801-7.93c4.513,0,7.768,3.417,7.768,7.994
			c0,4.513-3.256,7.897-7.768,7.897C103.955,32.858,100.732,29.441,100.732,24.896z M114.754,24.961c0-3.739-2.611-6.64-6.221-6.64
			c-3.61,0-6.253,2.836-6.253,6.576c0,3.739,2.643,6.608,6.253,6.608C112.11,31.504,114.754,28.7,114.754,24.961z"/>
		<path fill="#76BC43" d="M124.393,31.891V10.842c0-0.032,0.225-0.161,0.516-0.161c0.548,0,1.032,0.29,1.032,1.515v19.695
			c0,0.548-0.29,0.742-0.709,0.742h-0.161C124.651,32.632,124.393,32.439,124.393,31.891z"/>
		<path fill="#76BC43" d="M133.999,24.896c0-4.545,3.223-7.93,7.801-7.93c4.513,0,7.768,3.417,7.768,7.994
			c0,4.513-3.256,7.897-7.768,7.897C137.223,32.858,133.999,29.441,133.999,24.896z M148.021,24.961c0-3.739-2.611-6.64-6.221-6.64
			c-3.61,0-6.254,2.836-6.254,6.576c0,3.739,2.643,6.608,6.254,6.608C145.378,31.504,148.021,28.7,148.021,24.961z"/>
		<path fill="#76BC43" d="M155.307,35.179c0-2.353,2.385-3.965,5.222-4.481c-0.677-0.322-1.16-0.806-1.16-1.612
			c0-0.645,0.354-1.192,0.87-1.547c-2.288-0.742-3.804-2.675-3.804-4.996c0-3.094,2.579-5.576,6.06-5.576
			c1.418,0,2.772,0.451,3.804,1.193l1.418-1.934c0.838-1.321,1.967-0.451,1.934,0l-2.482,2.74c0.838,0.902,1.386,2.127,1.386,3.449
			c0,3.063-2.611,5.48-6.124,5.48c-0.354,0-0.677-0.032-1.032-0.065c-0.419,0.258-0.548,0.613-0.548,1
			c0,1.16,1.644,1.354,4.319,1.966c2.353,0.548,4.867,1.612,4.867,4.062c0,2.837-2.837,4.448-7.639,4.448
			C157.692,39.305,155.307,37.919,155.307,35.179z M168.491,34.921c0-1.644-1.838-2.353-3.804-2.805
			c-0.709-0.193-1.45-0.322-2.16-0.516c-2.997,0.226-5.705,1.547-5.705,3.578c0,1.837,1.966,2.869,5.609,2.869
			C166.202,38.048,168.491,36.952,168.491,34.921z M166.944,22.479c0-2.45-1.837-4.223-4.48-4.223c-2.611,0-4.448,1.741-4.448,4.223
			c0,2.45,1.838,4.19,4.448,4.19C165.074,26.669,166.944,24.928,166.944,22.479z"/>
		<path fill="#76BC43" d="M178.387,38.338l2.708-6.64c-0.548,0-0.774-0.129-0.967-0.613l-5.867-13.442
			c0-0.354,1.225-1.096,1.902,0.548l5.351,12.604l4.738-12.507c0.645-1.773,1.902-0.935,1.902-0.677l-7.865,20.114
			c-0.29,0.838-0.677,1.031-1.096,1.031C178.774,38.757,178.355,38.434,178.387,38.338z"/>
	</g>
</g>
</svg>
