<?xml version="1.0" encoding="iso-8859-1"?>
<!-- Generator: Adobe Illustrator 18.1.1, SVG Export Plug-In . SVG Version: 6.00 Build 0)  -->
<svg version="1.1" id="Layer_1" xmlns="http://www.w3.org/2000/svg" xmlns:xlink="http://www.w3.org/1999/xlink" x="0px" y="0px"
	 viewBox="0 0 134 430" style="enable-background:new 0 0 133.503 428.951;" xml:space="preserve">
<g style="opacity:0.6;">
	<g>
		<g>
			<path style="fill:none;stroke:#FFFFFF;stroke-width:2.1104;stroke-miterlimit:10;" d="M48.467,297.807c0,0,0-3.008,0-6.684
				s6.876-6.684,15.28-6.684h2.713c8.404,0,15.28,2.91,15.28,6.466s0,6.466,0,6.466"/>
		</g>
		<line style="fill:none;stroke:#FFFFFF;stroke-width:2.1104;stroke-miterlimit:10;" x1="65.453" y1="284.413" x2="65.453" y2="0"/>
		<path style="fill:none;stroke:#FFFFFF;stroke-width:1.206;stroke-miterlimit:10;" d="M58.547,379.205l0.001-14.96
			c0-0.792,0.562-1.765,1.247-2.161l2.615-1.51l-10.34-5.97c-0.686-0.396-1.809-0.396-2.495,0l-12.956,7.48
			c-0.686,0.396-1.248,1.368-1.248,2.161l-0.001,14.96c0,0.792,0.562,1.765,1.248,2.161l12.956,7.481
			c0.686,0.396,1.809,0.396,2.495,0l10.34-5.97l-2.615-1.51C59.109,380.97,58.547,379.998,58.547,379.205z"/>
		<path style="fill:none;stroke:#FFFFFF;stroke-width:1.206;stroke-miterlimit:10;" d="M99.791,342.012l-12.956-7.48
			c-0.686-0.396-1.81-0.396-2.495,0l-12.956,7.48c-0.686,0.396-1.248,1.369-1.248,2.161v11.94l2.615-1.51
			c0.686-0.396,1.809-0.396,2.495,0l12.956,7.48c0.686,0.396,1.248,1.368,1.248,2.161v3.02l10.341-5.97
			c0.686-0.396,1.247-1.369,1.247-2.161v-14.96C101.039,343.381,100.477,342.409,99.791,342.012z"/>
		<path style="fill:none;stroke:#FFFFFF;stroke-width:1.206;stroke-miterlimit:10;" d="M84.34,368.775l-12.956-7.48
			c-0.686-0.396-1.248-1.369-1.248-2.161v-3.02l-7.726,4.461l2.616,1.51c0.686,0.396,1.247,1.368,1.247,2.161v14.96
			c0,0.792-0.562,1.765-1.248,2.161l-2.615,1.51l10.341,5.97c0.686,0.396,1.809,0.396,2.495,0l12.956-7.481
			c0.686-0.396,1.248-1.368,1.248-2.161v-11.941l-2.616,1.51C86.149,369.171,85.026,369.171,84.34,368.775z"/>
		<circle style="fill:none;stroke:#FFFFFF;stroke-width:2.1104;stroke-miterlimit:10;" cx="67.279" cy="362.728" r="66.224"/>
		<g>

				<circle style="fill:none;stroke:#FFFFFF;stroke-width:2.1104;stroke-linecap:round;stroke-miterlimit:10;stroke-dasharray:0,12.0955;" cx="67.279" cy="362.728" r="57.764"/>
		</g>
	</g>
</g>
</svg>
