<?xml version="1.0" encoding="iso-8859-1"?>
<!-- Generator: Adobe Illustrator 18.1.1, SVG Export Plug-In . SVG Version: 6.00 Build 0)  -->
<svg version="1.1" id="Layer_1" xmlns="http://www.w3.org/2000/svg" xmlns:xlink="http://www.w3.org/1999/xlink" x="0px" y="0px"
	 viewBox="0 0 158.541 689.187" style="enable-background:new 0 0 158.541 689.187;" xml:space="preserve">
<g style="opacity:0.6;">
	<g>
		
			<line style="fill:none;stroke:#07505A;stroke-width:2.1104;stroke-miterlimit:10;" x1="79.136" y1="329.641" x2="79.136" y2="4.202"/>
		<g>
			<g>
				<path style="fill:none;stroke:#07505A;stroke-width:1.206;stroke-miterlimit:10;" d="M66.176,592.492
					c0-1.305,0.925-2.906,2.055-3.559l8.441-4.874c1.13-0.653,2.979-0.652,4.109,0l8.441,4.874c1.13,0.653,2.055,2.254,2.055,3.559
					v9.746c0,1.305-0.925,2.906-2.055,3.559l-8.441,4.874c-1.13,0.653-2.979,0.653-4.109,0l-8.442-4.874
					c-1.13-0.653-2.055-2.254-2.055-3.559L66.176,592.492z"/>
			</g>
		</g>
		<g>
			<g>
				<g>
					
						<line style="fill:none;stroke:#07505A;stroke-width:2.1104;stroke-linecap:round;stroke-miterlimit:10;" x1="108.017" y1="613.625" x2="108.017" y2="613.625"/>
					
						<line style="fill:none;stroke:#07505A;stroke-width:2.1104;stroke-linecap:round;stroke-miterlimit:10;stroke-dasharray:0,5.637;" x1="103.135" y1="610.806" x2="95.813" y2="606.578"/>
					
						<line style="fill:none;stroke:#07505A;stroke-width:2.1104;stroke-linecap:round;stroke-miterlimit:10;" x1="93.372" y1="605.169" x2="93.372" y2="605.169"/>
				</g>
			</g>
		</g>
		<g>
			<g>
				<g>
					
						<line style="fill:none;stroke:#07505A;stroke-width:2.1104;stroke-linecap:round;stroke-miterlimit:10;" x1="64.082" y1="589.516" x2="64.082" y2="589.516"/>
					
						<line style="fill:none;stroke:#07505A;stroke-width:2.1104;stroke-linecap:round;stroke-miterlimit:10;stroke-dasharray:0,5.637;" x1="59.2" y1="586.697" x2="51.877" y2="582.469"/>
					
						<line style="fill:none;stroke:#07505A;stroke-width:2.1104;stroke-linecap:round;stroke-miterlimit:10;" x1="49.437" y1="581.06" x2="49.437" y2="581.06"/>
				</g>
			</g>
		</g>
		<g>
			<g>
				<g>
					
						<line style="fill:none;stroke:#07505A;stroke-width:2.1104;stroke-linecap:round;stroke-miterlimit:10;" x1="108.017" y1="581.06" x2="108.017" y2="581.06"/>
					
						<line style="fill:none;stroke:#07505A;stroke-width:2.1104;stroke-linecap:round;stroke-miterlimit:10;stroke-dasharray:0,5.637;" x1="103.135" y1="583.878" x2="95.813" y2="588.106"/>
					
						<line style="fill:none;stroke:#07505A;stroke-width:2.1104;stroke-linecap:round;stroke-miterlimit:10;" x1="93.372" y1="589.516" x2="93.372" y2="589.516"/>
				</g>
			</g>
		</g>
		<g>
			<g>
				<g>
					
						<line style="fill:none;stroke:#07505A;stroke-width:2.1104;stroke-linecap:round;stroke-miterlimit:10;" x1="64.182" y1="605.169" x2="64.182" y2="605.169"/>
					
						<line style="fill:none;stroke:#07505A;stroke-width:2.1104;stroke-linecap:round;stroke-miterlimit:10;stroke-dasharray:0,5.637;" x1="59.301" y1="607.988" x2="51.978" y2="612.216"/>
					
						<line style="fill:none;stroke:#07505A;stroke-width:2.1104;stroke-linecap:round;stroke-miterlimit:10;" x1="49.537" y1="613.625" x2="49.537" y2="613.625"/>
				</g>
			</g>
		</g>
		<g>
			<g>
				<g>
					
						<line style="fill:none;stroke:#07505A;stroke-width:2.1104;stroke-linecap:round;stroke-miterlimit:10;" x1="78.727" y1="564.069" x2="78.727" y2="564.069"/>
					
						<line style="fill:none;stroke:#07505A;stroke-width:2.1104;stroke-linecap:round;stroke-miterlimit:10;stroke-dasharray:0,5.4618;" x1="78.727" y1="569.531" x2="78.727" y2="577.723"/>
					
						<line style="fill:none;stroke:#07505A;stroke-width:2.1104;stroke-linecap:round;stroke-miterlimit:10;" x1="78.727" y1="580.454" x2="78.727" y2="580.454"/>
				</g>
			</g>
		</g>
		<g>
			<g>
				<g>
					
						<line style="fill:none;stroke:#07505A;stroke-width:2.1104;stroke-linecap:round;stroke-miterlimit:10;" x1="78.727" y1="630.661" x2="78.727" y2="630.661"/>
					
						<line style="fill:none;stroke:#07505A;stroke-width:2.1104;stroke-linecap:round;stroke-miterlimit:10;stroke-dasharray:0,5.4618;" x1="78.727" y1="625.199" x2="78.727" y2="617.006"/>
					
						<line style="fill:none;stroke:#07505A;stroke-width:2.1104;stroke-linecap:round;stroke-miterlimit:10;" x1="78.727" y1="614.275" x2="78.727" y2="614.275"/>
				</g>
			</g>
		</g>
		<circle style="fill:none;stroke:#07505A;stroke-width:1.206;stroke-miterlimit:10;" cx="112.094" cy="577.933" r="4.952"/>
		<circle style="fill:none;stroke:#07505A;stroke-width:1.206;stroke-miterlimit:10;" cx="112.094" cy="616.761" r="4.952"/>
		<circle style="fill:none;stroke:#07505A;stroke-width:1.206;stroke-miterlimit:10;" cx="45.391" cy="577.933" r="4.952"/>
		<circle style="fill:none;stroke:#07505A;stroke-width:1.206;stroke-miterlimit:10;" cx="45.391" cy="616.761" r="4.952"/>
		<circle style="fill:none;stroke:#07505A;stroke-width:1.206;stroke-miterlimit:10;" cx="78.774" cy="636.137" r="4.952"/>
		<circle style="fill:none;stroke:#07505A;stroke-width:1.206;stroke-miterlimit:10;" cx="78.774" cy="558.593" r="4.952"/>
		
			<line style="fill:none;stroke:#07505A;stroke-width:2.1104;stroke-miterlimit:10;" x1="79.136" y1="495.331" x2="79.136" y2="396.261"/>
		<g>
			<g>
				<path style="fill:none;stroke:#07505A;stroke-width:2.1104;stroke-miterlimit:10;" d="M157.486,639.214
					c0,1.808-1.281,4.027-2.847,4.931l-73.051,42.18c-1.566,0.904-4.128,0.904-5.694,0l-73.047-42.18
					C1.281,643.241,0,641.022,0,639.214l0-84.341c0-1.808,1.281-4.027,2.847-4.931l73.047-42.177c1.566-0.904,4.128-0.904,5.694,0
					l73.049,42.177c1.566,0.904,2.847,3.123,2.847,4.931L157.486,639.214z"/>
			</g>
		</g>
		<g>
			<path style="fill:none;stroke:#07505A;stroke-width:2.1104;stroke-miterlimit:10;" d="M64.108,515.167c0,0,0-4.268,0-9.485
				s6.762-9.485,15.028-9.485s15.028,4.18,15.028,9.288s0,9.288,0,9.288"/>
		</g>
		
			<line style="fill:none;stroke:#07505A;stroke-width:2.1104;stroke-miterlimit:10;" x1="79.136" y1="414.331" x2="79.136" y2="315.261"/>
	</g>
</g>
</svg>
