<?xml version="1.0" encoding="iso-8859-1"?>
<!-- Generator: Adobe Illustrator 18.1.1, SVG Export Plug-In . SVG Version: 6.00 Build 0)  -->
<svg version="1.1" id="Layer_1" xmlns="http://www.w3.org/2000/svg" xmlns:xlink="http://www.w3.org/1999/xlink" x="0px" y="0px"
	 viewBox="0 0 94.061 482.689" style="enable-background:new 0 0 94.061 482.689;" xml:space="preserve">
<g style="opacity:0.6;">
	<line style="fill:none;stroke:#FFFFFF;stroke-width:2.1104;stroke-miterlimit:10;" x1="47.03" y1="266.121" x2="47.03" y2="0"/>
	<g>
		<path style="fill:none;stroke:#FFFFFF;stroke-width:2.1104;stroke-miterlimit:10;" d="M31.464,284.401c0,0,0-4.421,0-9.825
			s6.434-9.825,14.298-9.825h2.538c7.864,0,14.298,4.33,14.298,9.621c0,5.292,0,9.622,0,9.622"/>
	</g>
	<g>
		<g>
			<path style="fill:none;stroke:#FFFFFF;stroke-width:2.1104;stroke-miterlimit:10;" d="M93.005,452.682
				c0,1.233-0.874,2.747-1.942,3.363L48.971,480.35c-1.068,0.617-2.816,0.617-3.884,0l-42.09-24.304
				c-1.068-0.617-1.942-2.13-1.942-3.363V304.081c0-1.233,0.874-2.747,1.942-3.363l42.09-24.303c1.068-0.617,2.816-0.617,3.884,0
				l42.092,24.303c1.068,0.617,1.942,2.13,1.942,3.363L93.005,452.682z"/>
		</g>
	</g>
	<path style="fill:none;stroke:#FFFFFF;stroke-width:1.206;stroke-miterlimit:10;" d="M68.451,368.173
		c0-1.233-0.874-2.747-1.942-3.363l-17.721-10.232c-1.068-0.617-2.816-0.617-3.884,0L27.184,364.81
		c-1.068,0.617-1.942,2.13-1.942,3.363v20.46c0,1.233,0.874,2.747,1.942,3.363l17.721,10.232c1.068,0.617,2.816,0.617,3.884,0
		l17.722-10.233c1.068-0.617,1.942-2.13,1.942-3.363L68.451,368.173z"/>
	<g>

			<line style="fill:none;stroke:#FFFFFF;stroke-width:2.1104;stroke-linecap:round;stroke-miterlimit:10;stroke-dasharray:0,6.2835;" x1="46.847" y1="316.02" x2="46.847" y2="343.164"/>
		<g>
			<g>

					<line style="fill:none;stroke:#FFFFFF;stroke-width:2.1104;stroke-linecap:round;stroke-miterlimit:10;" x1="46.847" y1="413.643" x2="46.847" y2="413.643"/>

					<line style="fill:none;stroke:#FFFFFF;stroke-width:2.1104;stroke-linecap:round;stroke-miterlimit:10;stroke-dasharray:0,6.7859;" x1="46.847" y1="420.429" x2="46.847" y2="437.393"/>

					<line style="fill:none;stroke:#FFFFFF;stroke-width:2.1104;stroke-linecap:round;stroke-miterlimit:10;" x1="46.847" y1="440.786" x2="46.847" y2="440.786"/>
			</g>
		</g>
	</g>
	<g>

			<line style="fill:none;stroke:#FFFFFF;stroke-width:2.1104;stroke-linecap:round;stroke-miterlimit:10;stroke-dasharray:0,6.2835;" x1="85.555" y1="356.399" x2="77.482" y2="360.988"/>

			<line style="fill:none;stroke:#FFFFFF;stroke-width:2.1104;stroke-linecap:round;stroke-miterlimit:10;stroke-dasharray:0,6.2835;" x1="16.212" y1="395.819" x2="8.139" y2="400.408"/>
	</g>
	<g>

			<line style="fill:none;stroke:#FFFFFF;stroke-width:2.1104;stroke-linecap:round;stroke-miterlimit:10;stroke-dasharray:0,6.2835;" x1="85.066" y1="401.247" x2="77.095" y2="396.483"/>

			<line style="fill:none;stroke:#FFFFFF;stroke-width:2.1104;stroke-linecap:round;stroke-miterlimit:10;stroke-dasharray:0,6.2835;" x1="16.599" y1="360.324" x2="8.628" y2="355.56"/>
	</g>
</g>
</svg>
