<?xml version="1.0" encoding="iso-8859-1"?>
<!-- Generator: Adobe Illustrator 18.1.1, SVG Export Plug-In . SVG Version: 6.00 Build 0)  -->
<svg version="1.1" id="Layer_1" xmlns="http://www.w3.org/2000/svg" xmlns:xlink="http://www.w3.org/1999/xlink" x="0px" y="0px"
	 viewBox="0 0 196.441 976.087" style="enable-background:new 0 0 196.441 976.087;" xml:space="preserve">
<g style="opacity:0.6;">
	<line style="fill:none;stroke:#07505A;stroke-width:2.1104;stroke-miterlimit:10;" x1="98.221" y1="737.162" x2="98.221" y2="0"/>
	<g>
		<g>
			<path style="fill:none;stroke:#07505A;stroke-width:2.1104;stroke-miterlimit:10;" d="M195.386,916.093
				c0,1.469-1.041,3.272-2.313,4.007l-92.542,53.433c-1.272,0.735-3.354,0.735-4.626,0L3.368,920.1
				c-1.272-0.735-2.313-2.538-2.313-4.007V809.249c0-1.469,1.041-3.272,2.313-4.007l92.536-53.431c1.272-0.735,3.354-0.735,4.626,0
				l92.539,53.431c1.272,0.735,2.313,2.538,2.313,4.007L195.386,916.093z"/>
		</g>
	</g>
	
		<line style="fill:none;stroke:#07505A;stroke-width:2.1104;stroke-linecap:round;stroke-miterlimit:10;stroke-dasharray:0,6.2835;" x1="10.592" y1="818.263" x2="185.849" y2="818.263"/>
	
		<line style="fill:none;stroke:#07505A;stroke-width:2.1104;stroke-linecap:round;stroke-miterlimit:10;stroke-dasharray:0,6.2835;" x1="75.738" y1="773.458" x2="123.479" y2="773.458"/>
	
		<line style="fill:none;stroke:#07505A;stroke-width:2.1104;stroke-linecap:round;stroke-miterlimit:10;stroke-dasharray:0,6.2835;" x1="76.928" y1="953.672" x2="124.668" y2="953.672"/>
	
		<line style="fill:none;stroke:#07505A;stroke-width:2.1104;stroke-linecap:round;stroke-miterlimit:10;stroke-dasharray:0,6.2835;" x1="10.592" y1="907.082" x2="185.849" y2="907.082"/>
	<g>
		<g>
			<path style="fill:none;stroke:#07505A;stroke-width:1.206;stroke-miterlimit:10;" d="M121.755,874.274
				c0,1.469-1.041,3.272-2.313,4.007l-19.43,11.219c-1.272,0.735-3.354,0.735-4.626,0l-19.429-11.219
				c-1.272-0.735-2.313-2.538-2.313-4.007v-22.432c0-1.469,1.041-3.272,2.313-4.007l19.429-11.218c1.272-0.735,3.354-0.735,4.626,0
				l19.429,11.218c1.272,0.735,2.313,2.538,2.313,4.007L121.755,874.274z"/>
		</g>
	</g>
	<g>
		<g>
			<path style="fill:none;stroke:#07505A;stroke-width:1.206;stroke-miterlimit:10;" d="M55.732,870.725
				c0,1.469-1.041,3.272-2.313,4.007l-13.282,7.669c-1.272,0.735-3.354,0.734-4.626,0l-13.281-7.669
				c-1.272-0.735-2.313-2.538-2.313-4.007v-15.334c0-1.469,1.041-3.272,2.313-4.007l13.281-7.669c1.272-0.735,3.354-0.735,4.626,0
				l13.282,7.669c1.272,0.735,2.313,2.538,2.313,4.007L55.732,870.725z"/>
		</g>
	</g>
	<g>
		<g>
			<path style="fill:none;stroke:#07505A;stroke-width:1.206;stroke-miterlimit:10;" d="M176.077,870.725
				c0,1.469-1.041,3.272-2.313,4.007l-13.282,7.669c-1.272,0.735-3.354,0.734-4.626,0l-13.281-7.669
				c-1.272-0.735-2.313-2.538-2.313-4.007v-15.334c0-1.469,1.041-3.272,2.313-4.007l13.281-7.669c1.272-0.735,3.354-0.735,4.626,0
				l13.282,7.669c1.272,0.735,2.313,2.538,2.313,4.007L176.077,870.725z"/>
		</g>
	</g>
	<g>
		<path style="fill:none;stroke:#07505A;stroke-width:2.1104;stroke-miterlimit:10;" d="M79.677,761.639c0,0,0-5.267,0-11.704
			s7.664-11.704,17.032-11.704h3.024c9.367,0,17.032,5.158,17.032,11.461s0,11.461,0,11.461"/>
	</g>
</g>
</svg>
