<?xml version="1.0" encoding="utf-8"?>
<!-- Generator: Adobe Illustrator 18.1.1, SVG Export Plug-In . SVG Version: 6.00 Build 0)  -->
<svg version="1.1" id="artwork" xmlns="http://www.w3.org/2000/svg" xmlns:xlink="http://www.w3.org/1999/xlink" x="0px" y="0px"
	 viewBox="0 0 612 792" enable-background="new 0 0 612 792" xml:space="preserve">
<g>
	<path fill="#8E47AD" d="M597.9,630.7L473.1,474.3c-6.2-7.4-16.5-8.2-24.1-3l-21.3,17.4l-52.8-66.1c80.4-76.3,90.6-203.3,20.4-290.8
		c-52.5-65-138.6-94.1-219.4-74.4c-30.4,7.4-58.3,20.9-83.3,41.4C47.7,134.2,19.1,185.7,13,242.7S22.8,356,59.2,400.5
		c52.5,65,137.5,94.4,219.4,74.4c25.2-6.1,48.3-16.2,69.1-31.3l52.8,66.1l-21.3,17.4c-3.7,3.1-6.1,7-6.1,11.5c0,4.5,1,8.7,4.1,12.3
		l124.8,156.4c4.7,5.5,10.7,7.4,17,5.9c2.1-0.5,5.2-1.3,7.1-2.8l68.7-55.7C602.5,649.6,604.2,638.1,597.9,630.7z M86.3,379.5
		c-30.2-37.1-44-84.9-39-132.8c5-47.9,28.9-91.5,66.2-120.7c20.5-16.1,44.2-28.6,70.4-35c68.2-16.6,139.9,8.2,184.4,63
		c62.4,78.2,49.9,191.3-28.3,253.8c-20.5,16.1-44.2,28.6-70.4,35C202.5,459,129.8,434.5,86.3,379.5z M518.3,673.5L414.5,544.2
		l21.3-17.4l0,0l0,0l21.3-17.4l103.8,129.3L518.3,673.5z"/>
</g>
<path fill="none" stroke="#8E47AD" stroke-width="3" stroke-linecap="round" stroke-miterlimit="10" d="M88.6,302.2
	c-18.4-75.6,27.4-152.4,104-171"/>
</svg>
